<svg width="379" height="379" viewBox="0 0 379 379" fill="none" xmlns="http://www.w3.org/2000/svg">
<path d="M312.895 194.942C244.303 155.337 133.446 155.337 65.2939 194.942C-2.85787 234.548 -2.49403 298.788 66.0974 338.364C134.689 377.939 245.554 377.969 313.706 338.364C381.857 298.758 381.494 234.548 312.895 194.942Z" fill="#F5F5F5"/>
<path d="M88.9663 326.046C84.9034 323.696 78.3543 323.696 74.299 326.046C70.2437 328.396 70.2816 332.201 74.3445 334.543C78.4074 336.885 84.9565 336.893 89.0194 334.543C93.0822 332.193 93.0368 328.396 88.9663 326.046Z" fill="#E0E0E0"/>
<path d="M231.129 184.558L220.836 178.623C219.255 177.708 217.462 177.227 215.636 177.227C213.81 177.227 212.016 177.708 210.436 178.623L153.336 211.717L148.295 208.814L106.961 233.009L111.729 235.738L44.1383 274.783C43.6109 275.086 43.1729 275.524 42.8683 276.051C42.5637 276.578 42.4033 277.176 42.4033 277.784C42.4033 278.393 42.5637 278.991 42.8683 279.518C43.1729 280.045 43.6109 280.482 44.1383 280.786L54.576 286.789C56.1585 287.706 57.9548 288.188 59.7834 288.188C61.6121 288.188 63.4084 287.706 64.9909 286.789L132.544 247.722L140.435 252.27C143.597 254.093 147.184 255.053 150.834 255.053C154.485 255.053 158.071 254.093 161.234 252.27L185.49 238.255C186.194 237.848 186.778 237.263 187.184 236.56C187.59 235.856 187.804 235.057 187.804 234.245C187.804 233.432 187.59 232.634 187.184 231.93C186.778 231.226 186.194 230.642 185.49 230.235L174.12 223.686L183.709 218.122L187.029 216.189L231.167 190.576C231.696 190.27 232.135 189.83 232.439 189.299C232.742 188.769 232.9 188.167 232.897 187.556C232.893 186.945 232.727 186.346 232.417 185.819C232.106 185.292 231.662 184.857 231.129 184.558Z" fill="#E0E0E0"/>
<path d="M156.148 283.917C144.285 277.095 125.108 277.095 113.321 283.917C101.534 290.739 101.595 301.874 113.465 308.726C125.335 315.578 144.498 315.548 156.292 308.726C168.087 301.904 168.034 290.769 156.148 283.917Z" fill="#E0E0E0"/>
<path d="M256.265 326.008C245.516 319.8 228.135 319.8 217.455 326.008C206.775 332.216 206.843 342.275 217.584 348.483C228.325 354.691 245.713 354.691 256.393 348.483C267.074 342.275 267.013 332.216 256.265 326.008Z" fill="#E0E0E0"/>
<path d="M269.135 234.98C258.053 228.583 240.142 228.583 229.136 234.98C218.13 241.378 218.183 251.747 229.265 258.145C240.347 264.542 258.258 264.542 269.264 258.145C280.27 251.747 280.217 241.362 269.135 234.98Z" fill="#E0E0E0"/>
<path d="M320.399 230.152C316.048 227.643 309.029 227.643 304.701 230.152C300.373 232.66 300.411 236.731 304.754 239.248C309.097 241.764 316.124 241.756 320.445 239.248C324.765 236.739 324.742 232.66 320.399 230.152Z" fill="#E0E0E0"/>
<path d="M88.7846 80.7952L86.5258 79.4839L62.5957 93.2416V95.8643L88.7846 80.7952Z" fill="#F5F5F5"/>
<path d="M88.7846 80.7952L62.5957 95.8642V98.8507L88.7922 83.8044L88.7846 80.7952Z" fill="#E0E0E0"/>
<path d="M60.1096 97.2742L57.8431 95.9629L33.9131 109.721V112.343L60.1096 97.2742Z" fill="#F5F5F5"/>
<path d="M60.1096 97.2742L33.9131 112.343V115.33L60.1171 100.283L60.1096 97.2742Z" fill="#E0E0E0"/>
<path d="M158.71 40.5225L156.451 39.2112L132.521 52.9765V55.5916L158.71 40.5225Z" fill="#F5F5F5"/>
<path d="M158.71 40.5227L132.521 55.5917V58.5783L158.717 43.532L158.71 40.5227Z" fill="#E0E0E0"/>
<path d="M130.035 57.0015L127.769 55.6902L103.846 69.4555V72.0706L130.035 57.0015Z" fill="#F5F5F5"/>
<path d="M130.035 57.0015L103.846 72.0705V75.0646L130.043 60.0107L130.035 57.0015Z" fill="#E0E0E0"/>
<path d="M88.6558 55.6524L86.397 54.3335L86.5258 135.083L88.7922 136.395L88.6558 55.6524Z" fill="#F0F0F0"/>
<path d="M88.7923 136.395L86.5259 135.083L60.4658 150.039L62.7247 151.358L88.7923 136.395Z" fill="#F5F5F5"/>
<path d="M91.4071 137.888L60.1321 155.852L59.9805 69.1221L91.2555 51.1499L91.4071 137.888ZM62.7244 151.357L88.792 136.395L88.6859 55.6524L62.5956 70.6078L62.7244 151.357Z" fill="#E0E0E0"/>
<path d="M91.2559 51.1497L88.9894 49.8384L57.7144 67.803L59.9808 69.1219L91.2559 51.1497Z" fill="#F5F5F5"/>
<path d="M59.9808 69.1219L57.7144 67.803L57.866 154.541L60.1324 155.852L59.9808 69.1219Z" fill="#F0F0F0"/>
<path d="M59.9808 72.1312L57.7144 70.8123L57.8508 151.562L60.1172 152.873L59.9808 72.1312Z" fill="#F0F0F0"/>
<path d="M60.1172 152.873L57.8508 151.562L31.7832 166.517L34.0496 167.836L60.1172 152.873Z" fill="#F5F5F5"/>
<path d="M62.7248 154.367L31.4573 172.331L31.3057 85.6008L62.5807 67.6287L62.7248 154.367ZM34.0496 167.836L60.1172 152.873L59.9808 72.1312L33.9208 87.0865L34.0496 167.836Z" fill="#E0E0E0"/>
<path d="M62.5806 67.6287L60.3141 66.3174L29.0391 84.282L31.3055 85.6009L62.5806 67.6287Z" fill="#F5F5F5"/>
<path d="M31.3055 85.6009L29.0391 84.282L29.1907 171.02L31.4495 172.331L31.3055 85.6009Z" fill="#F0F0F0"/>
<path d="M158.581 15.3797L156.322 14.0608L156.451 94.8105L158.718 96.1219L158.581 15.3797Z" fill="#F0F0F0"/>
<path d="M158.718 96.1219L156.451 94.8105L130.391 109.766L132.65 111.085L158.718 96.1219Z" fill="#F5F5F5"/>
<path d="M161.333 97.6151L130.058 115.58L129.906 28.8494L161.181 10.8772L161.333 97.6151ZM132.65 111.085L158.718 96.1219L158.581 15.3797L132.521 30.3199L132.65 111.085Z" fill="#E0E0E0"/>
<path d="M161.181 10.8773L158.915 9.56592L127.64 27.5305L129.906 28.8494L161.181 10.8773Z" fill="#F5F5F5"/>
<path d="M129.906 28.8494L127.64 27.5305L127.791 114.268L130.058 115.58L129.906 28.8494Z" fill="#F0F0F0"/>
<path d="M129.906 31.8587L127.64 30.5398L127.776 111.29L130.043 112.601L129.906 31.8587Z" fill="#F0F0F0"/>
<path d="M130.043 112.601L127.776 111.29L101.708 126.252L103.975 127.564L130.043 112.601Z" fill="#F5F5F5"/>
<path d="M132.65 114.094L101.383 132.059L101.231 45.3284L132.506 27.3562L132.65 114.094ZM103.975 127.564L130.043 112.601L129.906 31.836L103.846 46.8216L103.975 127.564Z" fill="#E0E0E0"/>
<path d="M132.506 27.3563L130.239 26.0449L98.9644 44.0095L101.231 45.3284L132.506 27.3563Z" fill="#F5F5F5"/>
<path d="M101.231 45.3284L98.9644 44.0095L99.116 130.747L101.382 132.059L101.231 45.3284Z" fill="#F0F0F0"/>
<path d="M297.969 101.579L297.909 120.514L295.62 121.848L295.68 100.26L297.969 101.579Z" fill="#F0F0F0"/>
<path d="M322.688 134.825L322.68 137.478L295.62 121.848L297.909 120.514L322.688 134.825Z" fill="#F5F5F5"/>
<path d="M292.838 123.433L325.432 142.261L325.508 114.306L292.914 95.4775L292.838 123.433ZM295.62 121.848L295.68 100.261L297.954 101.579L322.726 115.883L322.673 134.833V137.493L295.62 121.848Z" fill="#E0E0E0"/>
<path d="M292.914 95.4776L295.21 94.1436L327.819 112.972L325.523 114.306L292.914 95.4776Z" fill="#F5F5F5"/>
<path d="M327.82 112.972L327.744 140.927L325.447 142.261L325.523 114.306L327.82 112.972Z" fill="#F0F0F0"/>
<path d="M297.969 59.1771L297.909 78.1119L295.62 79.446L295.68 57.8582L297.969 59.1771Z" fill="#F0F0F0"/>
<path d="M322.688 92.4229L322.68 95.0759L295.62 79.4459L297.909 78.1118L322.688 92.4229Z" fill="#F5F5F5"/>
<path d="M292.838 81.03L325.432 99.8587L325.508 71.9037L292.914 53.0598L292.838 81.03ZM295.62 79.4458L295.68 57.858L297.954 59.1769L322.726 73.4803L322.673 92.4303V95.0833L295.62 79.4458Z" fill="#E0E0E0"/>
<path d="M292.914 53.075L295.21 51.741L327.819 70.5697L325.523 71.9038L292.914 53.075Z" fill="#F5F5F5"/>
<path d="M327.82 70.5696L327.744 98.5322L325.447 99.8587L325.523 71.9037L327.82 70.5696Z" fill="#F0F0F0"/>
<path d="M305.838 108.773L299.084 114.087L299.069 119.286L321.544 132.263L321.559 127.063L317.276 118.559L313.425 121.545L314.79 125.767L312.811 122.015L305.838 108.773Z" fill="#E0E0E0"/>
<path d="M313.22 111.426C312.167 110.82 311.303 111.305 311.303 112.525C311.337 113.187 311.527 113.831 311.858 114.405C312.189 114.98 312.65 115.468 313.205 115.83C314.267 116.436 315.131 115.951 315.131 114.731C315.095 114.068 314.903 113.424 314.571 112.85C314.239 112.275 313.776 111.788 313.22 111.426Z" fill="#E0E0E0"/>
<path d="M305.838 66.3704L299.084 71.6915L299.069 76.8838L321.544 89.8608L321.559 84.6609L317.276 76.1561L313.425 79.1427L314.79 83.3647L312.811 79.6126L305.838 66.3704Z" fill="#E0E0E0"/>
<path d="M313.22 68.9779C312.167 68.3715 311.303 68.8566 311.303 70.077C311.337 70.7388 311.527 71.3831 311.858 71.9574C312.189 72.5317 312.65 73.0198 313.205 73.3819C314.267 73.9959 315.131 73.5032 315.131 72.2828C315.095 71.6205 314.903 70.976 314.571 70.4017C314.239 69.8274 313.776 69.3396 313.22 68.9779Z" fill="#E0E0E0"/>
<path d="M177.061 231.948L157.262 243.272C154.418 244.906 151.196 245.765 147.916 245.765C144.637 245.765 141.414 244.906 138.57 243.272L123.88 234.806C123.024 234.314 122.312 233.605 121.817 232.751C121.322 231.896 121.061 230.927 121.06 229.939V219.918L118.028 221.685V230.356C118.028 231.51 118.332 232.645 118.909 233.644C119.487 234.643 120.318 235.473 121.318 236.049L138.752 246.1C141.552 247.709 144.725 248.556 147.954 248.556C151.184 248.556 154.356 247.709 157.156 246.1L177.099 234.73C178.457 233.956 179.538 232.777 180.19 231.358C180.843 229.938 181.034 228.35 180.738 226.816C180.541 227.89 180.11 228.907 179.474 229.794C178.839 230.681 178.015 231.417 177.061 231.948Z" fill="#11841F"/>
<path opacity="0.1" d="M177.061 231.948L157.262 243.272C154.418 244.906 151.196 245.765 147.916 245.765C144.637 245.765 141.414 244.906 138.57 243.272L123.88 234.806C123.024 234.314 122.312 233.605 121.817 232.751C121.322 231.896 121.061 230.927 121.06 229.939V219.918L118.028 221.685V230.356C118.028 231.51 118.332 232.645 118.909 233.644C119.487 234.643 120.318 235.473 121.318 236.049L138.752 246.1C141.552 247.709 144.725 248.556 147.954 248.556C151.184 248.556 154.356 247.709 157.156 246.1L177.099 234.73C178.457 233.956 179.538 232.777 180.19 231.358C180.843 229.938 181.034 228.35 180.738 226.816C180.541 227.89 180.11 228.907 179.474 229.794C178.839 230.681 178.015 231.417 177.061 231.948Z" fill="black"/>
<path d="M123.88 234.768L138.57 243.235C141.414 244.868 144.636 245.727 147.916 245.727C151.196 245.727 154.418 244.868 157.262 243.235L177.061 231.948C178.007 231.413 178.824 230.675 179.453 229.788C180.082 228.901 180.507 227.887 180.7 226.816C180.51 225.775 180.099 224.786 179.495 223.917C178.891 223.047 178.107 222.317 177.198 221.776L160.954 212.035C159.98 211.451 159.175 210.624 158.616 209.636C158.056 208.648 157.763 207.531 157.762 206.396V198.649L121.045 219.873V229.894C121.046 230.884 121.309 231.856 121.806 232.712C122.304 233.568 123.02 234.277 123.88 234.768Z" fill="#11841F"/>
<path opacity="0.4" d="M123.88 234.768C123.024 234.276 122.312 233.567 121.817 232.713C121.322 231.859 121.061 230.889 121.06 229.901V219.881L118.028 221.647V230.356C118.028 231.511 118.332 232.645 118.909 233.644C119.487 234.643 120.318 235.473 121.318 236.049L127.503 239.619V236.83L123.88 234.768Z" fill="black"/>
<path opacity="0.3" d="M123.88 234.768L127.458 236.83L165.79 214.923L160.954 212.028C159.98 211.443 159.175 210.616 158.616 209.628C158.056 208.64 157.763 207.524 157.762 206.388V198.649L121.045 219.873V229.894C121.046 230.884 121.309 231.856 121.806 232.712C122.304 233.568 123.02 234.277 123.88 234.768Z" fill="black"/>
<path d="M57.2443 256.06L56.9638 130.49C57.0652 128.545 57.6257 126.652 58.5993 124.966C59.5729 123.279 60.9321 121.847 62.5654 120.787L218.645 30.9036C220.161 30.0168 221.586 29.9258 222.602 30.4943L216.727 27.0909C215.697 26.439 214.249 26.4921 212.642 27.4168L56.5621 117.308C54.9312 118.371 53.574 119.803 52.6007 121.489C51.6274 123.175 51.0655 125.067 50.9604 127.01L51.2485 252.573C51.2485 254.256 51.817 255.461 52.7645 256.075C52.8637 256.143 52.9675 256.204 53.0753 256.257L58.874 259.63C57.8658 259.046 57.2518 257.811 57.2443 256.06Z" fill="#11841F"/>
<path opacity="0.3" d="M216.728 27.0909C215.697 26.439 214.249 26.4921 212.642 27.4168L56.5622 117.308C54.7287 118.48 53.2545 120.135 52.3022 122.091L58.3056 125.563C59.266 123.604 60.7513 121.951 62.5959 120.787L218.645 30.9036C220.161 30.0168 221.586 29.9258 222.602 30.4943L216.728 27.0909Z" fill="white"/>
<path opacity="0.2" d="M50.9604 127.01L51.2485 252.573C51.2485 254.256 51.817 255.461 52.7645 256.075C52.8637 256.143 52.9675 256.204 53.0753 256.257L58.874 259.63C57.881 259.039 57.267 257.803 57.2594 256.052L56.979 130.482C57.0258 128.76 57.4749 127.073 58.2903 125.555L52.3021 122.091C51.4796 123.605 51.0203 125.289 50.9604 127.01Z" fill="black"/>
<path d="M224.285 34.1099C224.285 32.3589 223.663 31.1234 222.67 30.5321H222.632C221.617 29.9636 220.214 30.0546 218.676 30.9414L62.5655 120.787C60.9321 121.847 59.573 123.279 58.5994 124.966C57.6257 126.652 57.0653 128.545 56.9639 130.49L57.2443 256.06C57.2443 257.811 57.8659 259.046 58.8589 259.638C58.8837 259.66 58.9118 259.678 58.9422 259.691H58.9877C59.9959 260.221 61.3678 260.123 62.8838 259.243L218.964 169.39C220.594 168.327 221.952 166.895 222.925 165.209C223.898 163.523 224.46 161.632 224.565 159.688L224.285 34.1099ZM216.189 164.584L62.7853 252.922L62.5048 130.474C62.6124 129.508 62.92 128.576 63.4081 127.735C63.8962 126.895 64.5541 126.165 65.3398 125.593L218.744 37.2556L219.017 159.703C218.912 160.669 218.606 161.602 218.119 162.443C217.632 163.283 216.975 164.013 216.189 164.584Z" fill="#11841F"/>
<path d="M218.744 37.2556L214.772 39.5296L215.037 157.778C214.932 158.743 214.627 159.677 214.14 160.517C213.653 161.358 212.995 162.088 212.21 162.659L62.77 248.692V252.922L216.189 164.584C216.975 164.013 217.632 163.283 218.119 162.443C218.606 161.602 218.912 160.669 219.017 159.703L218.744 37.2556Z" fill="#11841F"/>
<path opacity="0.3" d="M218.744 37.2556L214.772 39.5296L215.037 157.778C214.932 158.743 214.627 159.677 214.14 160.517C213.653 161.358 212.995 162.088 212.21 162.659L62.77 248.692V252.922L216.189 164.584C216.975 164.013 217.632 163.283 218.119 162.443C218.606 161.602 218.912 160.669 219.017 159.703L218.744 37.2556Z" fill="black"/>
<path d="M215.037 157.762L214.772 39.5144L65.3398 125.593C64.5541 126.165 63.8963 126.895 63.4082 127.735C62.9201 128.576 62.6124 129.508 62.5049 130.474L62.7702 248.722L212.24 162.644C213.02 162.069 213.672 161.339 214.153 160.498C214.635 159.658 214.936 158.726 215.037 157.762Z" fill="#455A64"/>
<path d="M80.8937 262.404L80.6284 143.724C80.726 141.885 81.2577 140.095 82.1799 138.501C83.1022 136.907 84.3887 135.554 85.9344 134.552L233.464 49.5959C234.927 48.7545 236.246 48.6711 237.208 49.2093L231.652 45.9878C230.682 45.3738 229.318 45.4193 227.794 46.2986L80.2494 131.263C78.7025 132.263 77.4149 133.616 76.4925 135.21C75.5701 136.805 75.0392 138.595 74.9434 140.435L75.2087 259.115C75.2087 260.699 75.7468 261.836 76.6185 262.427L76.9142 262.601L82.3945 265.793C81.4773 265.232 80.9012 264.057 80.8937 262.404Z" fill="#455A64"/>
<path opacity="0.4" d="M231.629 45.9878C230.659 45.3738 229.295 45.4193 227.771 46.2986L80.2492 131.263C78.5008 132.372 77.0965 133.947 76.1938 135.811L81.8713 139.093C82.7701 137.229 84.1721 135.654 85.919 134.545L233.464 49.5959C234.927 48.7545 236.246 48.6711 237.208 49.2093L231.629 45.9878Z" fill="white"/>
<path opacity="0.3" d="M74.9585 140.435L75.2238 259.115C75.2238 260.699 75.762 261.836 76.6337 262.427L76.9293 262.602L82.4096 265.793C81.4697 265.232 80.8936 264.057 80.8936 262.404L80.6283 143.724C80.6704 142.094 81.0963 140.497 81.8715 139.063L76.194 135.781C75.4245 137.214 75.0014 138.808 74.9585 140.435Z" fill="white"/>
<path d="M80.6436 150.599L80.8937 262.404C80.8937 264.057 81.4774 265.232 82.4097 265.793L82.4931 265.838C83.4557 266.346 84.7671 266.247 86.177 265.421L233.744 180.487C235.288 179.484 236.574 178.131 237.496 176.537C238.418 174.943 238.95 173.154 239.05 171.316L238.77 59.3286L80.6436 150.599Z" fill="#455A64"/>
<path opacity="0.5" d="M80.6436 150.599L80.8937 262.404C80.8937 264.057 81.4774 265.232 82.4097 265.793L82.4931 265.838C83.4557 266.346 84.7671 266.247 86.177 265.421L233.744 180.487C235.288 179.484 236.574 178.131 237.496 176.537C238.418 174.943 238.95 173.154 239.05 171.316L238.77 59.3286L80.6436 150.599Z" fill="white"/>
<path d="M232.706 66.7645C234.07 66.0065 235.192 66.6129 235.192 68.1819C235.147 69.0418 234.898 69.8787 234.466 70.6234C234.034 71.3681 233.43 71.9992 232.706 72.4646L106.226 145.536C104.862 146.294 103.747 145.695 103.74 144.118C103.787 143.261 104.036 142.426 104.465 141.682C104.894 140.939 105.492 140.306 106.211 139.836L232.706 66.7645Z" fill="#455A64"/>
<g opacity="0.8">
<path d="M232.706 66.7645C234.07 66.0065 235.192 66.6129 235.192 68.1819C235.147 69.0418 234.898 69.8787 234.466 70.6234C234.034 71.3681 233.43 71.9992 232.706 72.4646L106.226 145.536C104.862 146.294 103.747 145.695 103.74 144.118C103.787 143.261 104.036 142.426 104.465 141.682C104.894 140.939 105.492 140.306 106.211 139.836L232.706 66.7645Z" fill="white"/>
</g>
<path d="M87.6399 151.88C87.6653 151.866 87.694 151.858 87.7233 151.858C87.7526 151.858 87.7813 151.866 87.8067 151.88C87.9052 151.926 87.9128 152.108 87.8067 152.274L87.0032 153.745L89.7017 152.183C89.8381 152.108 89.9518 152.183 89.9518 152.327C89.9488 152.414 89.9244 152.499 89.8807 152.575C89.8371 152.65 89.7756 152.714 89.7017 152.76L87.0108 154.321L87.8143 154.859C87.9052 154.92 87.8976 155.109 87.8143 155.276C87.7749 155.346 87.7172 155.403 87.6475 155.443C87.6213 155.463 87.5893 155.473 87.5565 155.473C87.5237 155.473 87.4918 155.463 87.4656 155.443L86.2755 154.632C86.2524 154.617 86.234 154.596 86.2225 154.571C86.2188 154.541 86.2188 154.51 86.2225 154.48C86.2188 154.445 86.2188 154.409 86.2225 154.374L86.2679 154.253L87.4504 152.077C87.4953 151.996 87.5606 151.928 87.6399 151.88Z" fill="#455A64"/>
<path d="M94.4465 147.946C94.4741 147.931 94.5055 147.922 94.5374 147.922C94.5694 147.922 94.6007 147.931 94.6284 147.946L95.8185 148.75C95.8397 148.765 95.8556 148.786 95.8639 148.811C95.8709 148.843 95.8709 148.877 95.8639 148.909C95.8671 148.944 95.8671 148.98 95.8639 149.015L95.8185 149.129L94.6284 151.304C94.5887 151.389 94.5255 151.46 94.4465 151.509C94.4204 151.521 94.3919 151.528 94.3631 151.528C94.3343 151.528 94.3058 151.521 94.2797 151.509C94.1812 151.456 94.1736 151.282 94.2797 151.107L95.0377 149.637L92.3468 151.198C92.2104 151.274 92.0967 151.198 92.0967 151.054C92.1007 150.968 92.1248 150.885 92.1669 150.81C92.209 150.735 92.268 150.67 92.3392 150.622L95.0377 149.068L94.2342 148.523C94.1433 148.462 94.1509 148.28 94.2342 148.113C94.2894 148.04 94.3625 147.983 94.4465 147.946Z" fill="#455A64"/>
<path d="M99.4268 145.074C99.6706 144.913 99.9623 144.84 100.253 144.869C100.265 144.791 100.294 144.715 100.337 144.649C100.38 144.582 100.437 144.525 100.503 144.482C100.64 144.414 100.746 144.482 100.746 144.642V145.278C100.739 145.361 100.714 145.442 100.672 145.514C100.63 145.586 100.572 145.648 100.503 145.695L99.965 146.036C99.8362 146.112 99.7224 146.036 99.7224 145.907C99.7218 145.832 99.7377 145.758 99.7692 145.69C99.8006 145.622 99.8468 145.561 99.9044 145.513C99.746 145.519 99.5919 145.566 99.4572 145.65C99.1529 145.846 98.9 146.112 98.7194 146.426C98.5388 146.74 98.4357 147.092 98.4187 147.454C98.4187 148.113 98.8887 148.386 99.4647 148.053C99.8911 147.779 100.214 147.371 100.382 146.893C100.42 146.779 100.498 146.682 100.602 146.62C100.642 146.61 100.683 146.61 100.723 146.62C100.844 146.62 100.89 146.772 100.822 146.953C100.57 147.656 100.093 148.256 99.4647 148.659C98.6158 149.152 97.9487 148.758 97.9487 147.78C97.9635 147.244 98.1052 146.719 98.3621 146.249C98.6191 145.778 98.984 145.376 99.4268 145.074Z" fill="#455A64"/>
<g opacity="0.7">
<path d="M87.6399 151.88C87.6653 151.866 87.694 151.858 87.7233 151.858C87.7526 151.858 87.7813 151.866 87.8067 151.88C87.9052 151.926 87.9128 152.108 87.8067 152.275L87.0032 153.745L89.7017 152.184C89.8381 152.108 89.9518 152.184 89.9518 152.328C89.9488 152.415 89.9244 152.5 89.8807 152.575C89.8371 152.65 89.7756 152.714 89.7017 152.76L87.0108 154.321L87.8143 154.859C87.9052 154.92 87.8976 155.11 87.8143 155.276C87.7749 155.346 87.7172 155.404 87.6475 155.443C87.6213 155.463 87.5893 155.473 87.5565 155.473C87.5237 155.473 87.4918 155.463 87.4656 155.443L86.2755 154.632C86.2524 154.617 86.234 154.596 86.2225 154.571C86.2188 154.541 86.2188 154.511 86.2225 154.48C86.2188 154.445 86.2188 154.41 86.2225 154.374L86.2679 154.253L87.4504 152.078C87.4953 151.996 87.5606 151.929 87.6399 151.88Z" fill="white"/>
<path d="M94.447 147.946C94.4746 147.931 94.506 147.922 94.5379 147.922C94.5699 147.922 94.6012 147.931 94.6289 147.946L95.819 148.75C95.8402 148.765 95.8561 148.786 95.8644 148.811C95.8714 148.843 95.8714 148.877 95.8644 148.909C95.8676 148.944 95.8676 148.98 95.8644 149.015L95.819 149.129L94.6289 151.304C94.5892 151.389 94.526 151.46 94.447 151.509C94.4209 151.521 94.3924 151.528 94.3636 151.528C94.3348 151.528 94.3063 151.521 94.2802 151.509C94.1817 151.456 94.1741 151.282 94.2802 151.107L95.0382 149.637L92.3473 151.198C92.2109 151.274 92.0972 151.198 92.0972 151.054C92.1012 150.968 92.1253 150.885 92.1674 150.81C92.2095 150.735 92.2685 150.67 92.3397 150.622L95.0382 149.068L94.2347 148.523C94.1438 148.462 94.1513 148.28 94.2347 148.113C94.2899 148.04 94.363 147.983 94.447 147.946Z" fill="white"/>
<path d="M99.4268 145.074C99.6706 144.913 99.9623 144.84 100.253 144.869C100.265 144.791 100.294 144.715 100.337 144.649C100.38 144.582 100.437 144.525 100.503 144.482C100.64 144.414 100.746 144.482 100.746 144.642V145.278C100.739 145.361 100.714 145.442 100.672 145.514C100.63 145.586 100.572 145.648 100.503 145.695L99.965 146.036C99.8362 146.112 99.7224 146.036 99.7224 145.907C99.7218 145.832 99.7377 145.758 99.7692 145.69C99.8006 145.622 99.8468 145.561 99.9044 145.513C99.746 145.519 99.5919 145.566 99.4572 145.65C99.1529 145.846 98.9 146.112 98.7194 146.426C98.5388 146.74 98.4357 147.092 98.4187 147.454C98.4187 148.113 98.8887 148.386 99.4647 148.053C99.8911 147.779 100.214 147.371 100.382 146.893C100.42 146.779 100.498 146.682 100.602 146.62C100.642 146.61 100.683 146.61 100.723 146.62C100.844 146.62 100.89 146.772 100.822 146.953C100.57 147.656 100.093 148.256 99.4647 148.659C98.6158 149.152 97.9487 148.758 97.9487 147.78C97.9635 147.244 98.1052 146.719 98.3621 146.249C98.6191 145.778 98.984 145.376 99.4268 145.074Z" fill="white"/>
</g>
<g opacity="0.5">
<path d="M89.8608 218.903C89.4387 218.907 89.0229 218.8 88.6556 218.592C88.1989 218.281 87.8337 217.853 87.5978 217.353C87.3619 216.854 87.2639 216.3 87.3139 215.749L87.1699 169.633C87.2463 168.213 87.6568 166.831 88.368 165.599C89.0793 164.367 90.0712 163.321 91.2631 162.545L146.597 130.603C147.029 130.244 147.56 130.026 148.12 129.977C148.68 129.928 149.241 130.051 149.729 130.329C150.217 130.608 150.608 131.028 150.85 131.535C151.092 132.042 151.174 132.611 151.084 133.165L151.213 179.282C151.138 180.702 150.728 182.085 150.017 183.317C149.305 184.548 148.313 185.594 147.12 186.369L91.7861 218.311C91.2074 218.674 90.5434 218.878 89.8608 218.903ZM148.568 130.762C148.012 130.784 147.471 130.952 146.999 131.248L91.6649 163.19C90.5805 163.894 89.6781 164.845 89.0313 165.965C88.3845 167.085 88.0116 168.341 87.9431 169.633L88.0795 215.749C88.0299 216.167 88.093 216.591 88.2623 216.976C88.4315 217.361 88.7008 217.694 89.0422 217.94C89.4309 218.112 89.8583 218.177 90.2806 218.129C90.7028 218.081 91.1047 217.922 91.445 217.667L146.779 185.725C147.86 185.019 148.76 184.069 149.407 182.951C150.053 181.833 150.428 180.579 150.501 179.29L150.364 133.165C150.413 132.748 150.35 132.324 150.181 131.939C150.011 131.554 149.742 131.221 149.402 130.975C149.148 130.829 148.86 130.756 148.568 130.762Z" fill="white"/>
</g>
<path d="M196.663 187.461C196.483 187.461 196.306 187.417 196.147 187.332C195.964 187.208 195.816 187.037 195.719 186.838C195.622 186.638 195.579 186.416 195.594 186.195L195.367 107.484C195.39 106.982 195.534 106.492 195.785 106.057C196.037 105.622 196.39 105.253 196.814 104.983L227.892 87.0335C228.07 86.8945 228.286 86.8117 228.511 86.7956C228.736 86.7795 228.961 86.8308 229.157 86.943C229.353 87.0552 229.511 87.2233 229.611 87.4257C229.711 87.6281 229.749 87.8557 229.719 88.0795L229.947 166.76C229.925 167.262 229.783 167.751 229.532 168.187C229.281 168.622 228.93 168.991 228.506 169.261L197.428 187.211C197.2 187.362 196.936 187.448 196.663 187.461ZM228.09 87.3519L228.271 87.6778L197.193 105.627C196.882 105.832 196.622 106.106 196.436 106.428C196.249 106.751 196.14 107.112 196.117 107.484L196.345 186.195C196.333 186.286 196.344 186.378 196.375 186.464C196.407 186.549 196.459 186.626 196.526 186.688C196.615 186.714 196.708 186.72 196.799 186.704C196.89 186.689 196.975 186.652 197.049 186.597L228.127 168.647C228.436 168.441 228.693 168.166 228.879 167.844C229.064 167.522 229.173 167.161 229.196 166.79L228.976 88.0795C228.976 87.837 228.908 87.6551 228.787 87.5869C228.699 87.5583 228.605 87.5517 228.514 87.5675C228.423 87.5834 228.337 87.6212 228.264 87.6778L228.09 87.3519Z" fill="white"/>
<path d="M118.725 207.01C119.878 206.35 120.81 206.881 120.818 208.207L120.886 232.759C120.848 233.48 120.64 234.182 120.279 234.808C119.918 235.434 119.414 235.965 118.809 236.359L89.3454 253.369C88.1932 254.036 87.2609 253.498 87.2533 252.179L87.1851 227.62C87.2232 226.898 87.4313 226.196 87.7922 225.571C88.1531 224.945 88.6567 224.413 89.262 224.019L118.725 207.01Z" fill="#455A64"/>
<g opacity="0.2">
<path d="M118.725 207.01C119.878 206.35 120.81 206.881 120.818 208.207L120.886 232.759C120.848 233.48 120.64 234.182 120.279 234.808C119.918 235.434 119.414 235.965 118.809 236.359L89.3454 253.369C88.1932 254.036 87.2609 253.498 87.2533 252.179L87.1851 227.62C87.2232 226.898 87.4313 226.196 87.7922 225.571C88.1531 224.945 88.6567 224.413 89.262 224.019L118.725 207.01Z" fill="white"/>
</g>
<path d="M118.945 208.624C118.969 208.606 118.998 208.596 119.029 208.596C119.059 208.596 119.088 208.606 119.112 208.624C119.18 208.685 119.157 208.852 119.066 208.98L104.384 229.977L119.142 233.979C119.233 233.979 119.256 234.146 119.142 234.29C119.11 234.373 119.052 234.442 118.976 234.487C118.936 234.502 118.893 234.502 118.854 234.487L103.997 230.455L89.2468 251.656C89.2143 251.703 89.1731 251.745 89.1255 251.777C89.1011 251.794 89.072 251.804 89.0421 251.804C89.0122 251.804 88.9831 251.794 88.9587 251.777C88.9267 251.719 88.9139 251.653 88.9221 251.588C88.9303 251.522 88.959 251.461 89.0042 251.413L103.687 230.432L88.9284 226.43C88.8374 226.43 88.8147 226.263 88.8829 226.119C88.92 226.039 88.9776 225.971 89.0497 225.922C89.0915 225.908 89.1367 225.908 89.1785 225.922L104.035 229.954L118.816 208.806C118.845 208.736 118.889 208.674 118.945 208.624Z" fill="white"/>
<path d="M154.874 186.65C156.027 185.99 156.966 186.521 156.966 187.847L157.035 212.399C157 213.121 156.793 213.824 156.432 214.45C156.07 215.077 155.565 215.608 154.958 216L125.502 233.009C124.35 233.676 123.41 233.138 123.41 231.819L123.334 207.26C123.374 206.538 123.583 205.836 123.945 205.21C124.307 204.584 124.812 204.053 125.418 203.659L154.874 186.65Z" fill="#455A64"/>
<g opacity="0.2">
<path d="M154.874 186.65C156.027 185.99 156.966 186.521 156.966 187.847L157.035 212.399C157 213.121 156.793 213.824 156.432 214.45C156.07 215.077 155.565 215.608 154.958 216L125.502 233.009C124.35 233.676 123.41 233.138 123.41 231.819L123.334 207.26C123.374 206.538 123.583 205.836 123.945 205.21C124.307 204.584 124.812 204.053 125.418 203.659L154.874 186.65Z" fill="white"/>
</g>
<path d="M155.094 188.264C155.162 188.264 155.223 188.227 155.261 188.264C155.293 188.322 155.306 188.387 155.299 188.452C155.293 188.517 155.266 188.579 155.223 188.628L140.541 209.625L155.291 213.627C155.382 213.627 155.405 213.794 155.337 213.938C155.3 214.017 155.242 214.085 155.17 214.135C155.128 214.149 155.083 214.149 155.041 214.135L140.184 210.102L125.403 231.251C125.368 231.299 125.324 231.34 125.274 231.372C125.25 231.388 125.221 231.397 125.191 231.397C125.161 231.397 125.132 231.388 125.108 231.372C125.039 231.304 125.062 231.137 125.153 231.008L139.836 210.011L125.07 206.032C124.971 206.032 124.956 205.865 125.024 205.721C125.056 205.639 125.115 205.569 125.191 205.524C125.23 205.51 125.273 205.51 125.312 205.524L140.169 209.557L154.958 188.408C154.992 188.351 155.039 188.302 155.094 188.264Z" fill="white"/>
<path d="M190.576 166.108C191.728 165.441 192.661 165.972 192.661 167.298L192.736 191.857C192.699 192.579 192.491 193.281 192.128 193.906C191.766 194.53 191.26 195.06 190.652 195.45L161.196 212.46C160.044 213.127 159.111 212.589 159.104 211.27L159.036 186.71C159.071 185.988 159.278 185.285 159.639 184.659C160 184.033 160.505 183.502 161.113 183.11L190.576 166.108Z" fill="#455A64"/>
<g opacity="0.2">
<path d="M190.576 166.108C191.728 165.441 192.661 165.972 192.661 167.298L192.736 191.857C192.699 192.579 192.491 193.281 192.128 193.906C191.766 194.53 191.26 195.06 190.652 195.45L161.196 212.46C160.044 213.127 159.111 212.589 159.104 211.27L159.036 186.71C159.071 185.988 159.278 185.285 159.639 184.659C160 184.033 160.505 183.502 161.113 183.11L190.576 166.108Z" fill="white"/>
</g>
<path d="M190.796 167.723C190.82 167.704 190.849 167.694 190.88 167.694C190.91 167.694 190.939 167.704 190.963 167.723C191.031 167.791 191.009 167.95 190.918 168.079L176.235 189.083L191.016 193.085C191.115 193.085 191.13 193.244 191.062 193.396C191.027 193.475 190.969 193.541 190.895 193.585C190.856 193.599 190.813 193.599 190.774 193.585L175.856 189.583L161.098 210.724C161.067 210.773 161.026 210.815 160.977 210.845C160.953 210.864 160.923 210.874 160.893 210.874C160.863 210.874 160.834 210.864 160.81 210.845C160.742 210.777 160.757 210.618 160.81 210.481L175.53 189.5L160.779 185.498C160.689 185.498 160.666 185.331 160.734 185.187C160.771 185.107 160.828 185.039 160.901 184.99C160.943 184.976 160.988 184.976 161.03 184.99L175.886 189.022L190.667 167.874C190.695 167.812 190.74 167.76 190.796 167.723Z" fill="white"/>
<path d="M187.711 111.426C189.637 110.319 191.198 111.206 191.206 113.419C191.14 114.623 190.792 115.793 190.188 116.837C189.585 117.88 188.744 118.766 187.734 119.423L158.748 136.152C156.83 137.266 155.269 136.379 155.261 134.166C155.325 132.963 155.671 131.792 156.273 130.749C156.875 129.705 157.716 128.819 158.725 128.162L187.711 111.426Z" fill="#455A64"/>
<g opacity="0.2">
<path d="M187.711 111.426C189.637 110.319 191.198 111.206 191.206 113.419C191.14 114.623 190.792 115.793 190.188 116.837C189.585 117.88 188.744 118.766 187.734 119.423L158.748 136.152C156.83 137.266 155.269 136.379 155.261 134.166C155.325 132.963 155.671 131.792 156.273 130.749C156.875 129.705 157.716 128.819 158.725 128.162L187.711 111.426Z" fill="white"/>
</g>
<path d="M187.711 122.667C189.637 121.56 191.198 122.447 191.206 124.661C191.141 125.864 190.793 127.035 190.189 128.078C189.586 129.122 188.745 130.008 187.734 130.664L158.748 147.401C156.83 148.507 155.269 147.62 155.261 145.407C155.325 144.204 155.671 143.033 156.273 141.99C156.875 140.947 157.716 140.06 158.725 139.404L187.711 122.667Z" fill="#455A64"/>
<g opacity="0.2">
<path d="M187.711 122.667C189.637 121.56 191.198 122.447 191.206 124.661C191.141 125.864 190.793 127.035 190.189 128.078C189.586 129.122 188.745 130.008 187.734 130.664L158.748 147.401C156.83 148.507 155.269 147.62 155.261 145.407C155.325 144.204 155.671 143.033 156.273 141.99C156.875 140.947 157.716 140.06 158.725 139.404L187.711 122.667Z" fill="white"/>
</g>
<path d="M187.711 133.885C189.637 132.779 191.198 133.673 191.206 135.879C191.141 137.082 190.793 138.253 190.189 139.297C189.586 140.34 188.745 141.226 187.734 141.882L158.748 158.619C156.83 159.726 155.269 158.839 155.261 156.625C155.325 155.423 155.671 154.252 156.273 153.208C156.875 152.165 157.716 151.279 158.725 150.622L187.711 133.885Z" fill="#455A64"/>
<g opacity="0.2">
<path d="M187.711 133.885C189.637 132.779 191.198 133.673 191.206 135.879C191.141 137.082 190.793 138.253 190.189 139.297C189.586 140.34 188.745 141.226 187.734 141.882L158.748 158.619C156.83 159.726 155.269 158.839 155.261 156.625C155.325 155.423 155.671 154.252 156.273 153.208C156.875 152.165 157.716 151.279 158.725 150.622L187.711 133.885Z" fill="white"/>
</g>
<path d="M238.77 52.6354C238.77 50.9753 238.186 49.808 237.254 49.2471C236.291 48.7089 234.98 48.7923 233.509 49.6337L85.9193 134.552C84.3737 135.554 83.0871 136.907 82.1649 138.501C81.2426 140.095 80.7109 141.885 80.6133 143.724V150.599L238.77 59.3285V52.6354Z" fill="#455A64"/>
<path opacity="0.3" d="M238.77 52.6354C238.77 50.9753 238.186 49.808 237.254 49.2471C236.291 48.7089 234.98 48.7923 233.509 49.6337L85.9193 134.552C84.3737 135.554 83.0871 136.907 82.1649 138.501C81.2426 140.095 80.7109 141.885 80.6133 143.724V150.599L238.77 59.3285V52.6354Z" fill="black"/>
<g opacity="0.5">
<path d="M87.6472 139.358C88.4507 138.896 89.1026 139.267 89.1026 140.185C89.0778 140.686 88.9343 141.174 88.6839 141.609C88.4335 142.044 88.0834 142.413 87.6624 142.686C86.8589 143.148 86.207 142.777 86.207 141.86C86.2343 141.359 86.3788 140.872 86.629 140.437C86.8791 140.003 87.2279 139.633 87.6472 139.358Z" fill="white"/>
<path d="M91.6038 137.077C92.4073 136.614 93.0591 136.986 93.0591 137.903C93.0319 138.403 92.8874 138.891 92.6372 139.325C92.387 139.76 92.0382 140.129 91.6189 140.404C90.8155 140.867 90.1636 140.495 90.1636 139.578C90.1908 139.077 90.3353 138.59 90.5855 138.156C90.8357 137.721 91.1845 137.352 91.6038 137.077Z" fill="white"/>
<path d="M95.5608 134.795C96.3643 134.333 97.0162 134.704 97.0162 135.621C96.9889 136.122 96.8444 136.609 96.5942 137.044C96.3441 137.478 95.9953 137.848 95.576 138.123C94.7725 138.585 94.1206 138.214 94.1206 137.289C94.1472 136.789 94.2915 136.303 94.5418 135.869C94.7921 135.436 95.1412 135.068 95.5608 134.795Z" fill="white"/>
</g>
<path d="M87.6472 139.358C88.4507 138.896 89.1026 139.267 89.1026 140.185C89.0778 140.686 88.9343 141.174 88.6839 141.609C88.4335 142.044 88.0834 142.413 87.6624 142.686C86.8589 143.148 86.207 142.777 86.207 141.86C86.2343 141.359 86.3788 140.872 86.629 140.437C86.8791 140.003 87.2279 139.633 87.6472 139.358Z" fill="#455A64"/>
<path d="M91.6043 137.077C92.4077 136.614 93.0596 136.986 93.0596 137.903C93.0324 138.403 92.8879 138.891 92.6377 139.325C92.3875 139.76 92.0387 140.129 91.6194 140.404C90.8159 140.867 90.1641 140.495 90.1641 139.578C90.1913 139.077 90.3358 138.59 90.586 138.156C90.8362 137.721 91.185 137.352 91.6043 137.077Z" fill="#455A64"/>
<path d="M95.5608 134.795C96.3643 134.333 97.0162 134.704 97.0162 135.621C96.9889 136.122 96.8444 136.609 96.5942 137.044C96.3441 137.478 95.9953 137.848 95.576 138.123C94.7725 138.585 94.1206 138.214 94.1206 137.289C94.1472 136.789 94.2915 136.303 94.5418 135.869C94.7921 135.436 95.1412 135.068 95.5608 134.795Z" fill="#455A64"/>
<path d="M91.498 312.539L81.644 312.827L71.79 312.539C71.3655 319.186 72.6617 325.963 74.4506 329.268C74.8766 330.117 75.5578 330.811 76.3986 331.254C78.0224 332.08 79.8184 332.51 81.6402 332.51C83.462 332.51 85.258 332.08 86.8818 331.254C87.7391 330.809 88.4244 330.091 88.8298 329.215C90.6415 325.895 91.9225 319.156 91.498 312.539Z" fill="white"/>
<path d="M88.5947 308.506C92.453 310.734 92.4681 314.343 88.6402 316.571C84.8123 318.8 78.574 318.8 74.7158 316.571C70.8575 314.343 70.8424 310.734 74.7158 308.506C78.5891 306.277 84.7365 306.285 88.5947 308.506Z" fill="#EBEBEB"/>
<path d="M87.0714 309.393C90.1034 311.129 90.1034 313.941 87.0714 315.684C85.3903 316.54 83.5306 316.986 81.6441 316.986C79.7577 316.986 77.898 316.54 76.2169 315.684C73.1849 313.948 73.1849 311.136 76.2169 309.393C77.8983 308.538 79.7579 308.093 81.6441 308.093C83.5304 308.093 85.39 308.538 87.0714 309.393Z" fill="#E0E0E0"/>
<g opacity="0.15">
<path d="M87.0714 309.393C90.1034 311.129 90.1034 313.941 87.0714 315.684C85.3903 316.54 83.5306 316.986 81.6441 316.986C79.7577 316.986 77.898 316.54 76.2169 315.684C73.1849 313.948 73.1849 311.136 76.2169 309.393C77.8983 308.538 79.7579 308.093 81.6441 308.093C83.5304 308.093 85.39 308.538 87.0714 309.393Z" fill="black"/>
</g>
<path d="M76.6335 292.398C75.0342 290.405 73.1771 288.608 71.7065 286.531C70.706 285.106 69.8722 283.363 70.2891 281.673C70.524 280.896 70.9715 280.2 71.5809 279.665C72.1904 279.129 72.9375 278.774 73.738 278.641C75.3537 278.4 77.0011 278.768 78.3618 279.672C79.7069 280.574 80.8885 281.7 81.8562 282.999C87.3979 290.016 90.0181 298.9 89.1709 307.801C89.1547 308.82 88.8383 309.811 88.2613 310.651C87.9081 311.066 87.4436 311.372 86.9225 311.532C86.4014 311.691 85.8454 311.699 85.3202 311.553C82.6369 310.795 82.9932 307.134 82.5535 305.004C81.6102 300.391 79.5808 296.07 76.6335 292.398Z" fill="#119726"/>
<path opacity="0.2" d="M76.6335 292.398C75.0342 290.405 73.1771 288.608 71.7065 286.531C70.706 285.106 69.8722 283.363 70.2891 281.673C70.524 280.896 70.9715 280.2 71.5809 279.665C72.1904 279.129 72.9375 278.774 73.738 278.641C75.3537 278.4 77.0011 278.768 78.3618 279.672C79.7069 280.574 80.8885 281.7 81.8562 282.999C87.3979 290.016 90.0181 298.9 89.1709 307.801C89.1547 308.82 88.8383 309.811 88.2613 310.651C87.9081 311.066 87.4436 311.372 86.9225 311.532C86.4014 311.691 85.8454 311.699 85.3202 311.553C82.6369 310.795 82.9932 307.134 82.5535 305.004C81.6102 300.391 79.5808 296.07 76.6335 292.398Z" fill="white"/>
<path d="M85.4874 308.855C85.4358 308.845 85.389 308.817 85.3547 308.777C85.3203 308.738 85.3003 308.687 85.2979 308.635C85.1084 304.329 83.7061 289.639 73.5868 281.301C73.5604 281.283 73.5381 281.259 73.5213 281.232C73.5045 281.204 73.4935 281.173 73.4891 281.141C73.4846 281.109 73.4868 281.077 73.4955 281.046C73.5041 281.015 73.5191 280.986 73.5394 280.961C73.5598 280.936 73.585 280.915 73.6137 280.9C73.6423 280.886 73.6737 280.877 73.7059 280.875C73.738 280.872 73.7703 280.877 73.8007 280.888C73.8311 280.898 73.8589 280.915 73.8824 280.938C84.1533 289.397 85.5708 304.261 85.7679 308.612C85.768 308.674 85.7445 308.733 85.7023 308.778C85.66 308.824 85.6021 308.851 85.5405 308.855H85.4874Z" fill="#F0F0F0"/>
<path d="M86.9653 309.317C86.7485 310.256 86.3458 311.143 85.7807 311.924C85.2157 312.705 84.4999 313.365 83.6756 313.865C82.1267 314.596 80.4051 314.882 78.7031 314.691C76.9781 314.497 75.283 314.095 73.6548 313.493C72.8362 313.221 71.9341 312.857 71.8508 311.849C71.8354 311.584 71.8792 311.32 71.9789 311.075C72.0785 310.83 72.2315 310.61 72.4268 310.431C72.5928 310.273 72.7674 310.123 72.9499 309.984C73.0365 309.921 73.1015 309.833 73.1357 309.732C73.17 309.63 73.1718 309.521 73.141 309.418C73.1102 309.316 73.0482 309.225 72.9637 309.16C72.8792 309.094 72.7763 309.056 72.6694 309.052C72.1864 309.017 71.7056 308.956 71.2292 308.87C70.1147 308.694 69.0676 308.223 68.1972 307.505C67.5762 306.953 67.1022 306.255 66.8176 305.474C66.6568 305.151 66.59 304.789 66.6248 304.43C66.6597 304.071 66.7948 303.729 67.0147 303.442C67.3374 303.181 67.7253 303.014 68.1366 302.957C68.4928 302.881 68.8946 302.813 69.2129 302.76C69.3177 302.746 69.4149 302.698 69.4893 302.623C69.5637 302.548 69.6111 302.45 69.6241 302.346C69.6371 302.241 69.615 302.134 69.5611 302.043C69.5073 301.953 69.4248 301.882 69.3266 301.843L67.8106 301.206C67.3711 301.064 66.973 300.817 66.6509 300.486C66.4521 300.177 66.3227 299.829 66.2717 299.465C66.2207 299.101 66.2492 298.731 66.3553 298.379C66.5448 297.424 66.8707 296.507 67.1133 295.559C67.3796 294.616 67.4134 293.623 67.2118 292.664C70.076 292.346 72.9739 292.541 75.7696 293.24C76.6097 293.413 77.4047 293.759 78.1043 294.255C78.5383 294.644 78.8667 295.137 79.0589 295.687C79.2511 296.237 79.3008 296.827 79.2034 297.401C79.1968 297.453 79.209 297.506 79.2377 297.549C79.2664 297.593 79.3098 297.625 79.36 297.64C79.4103 297.654 79.4641 297.651 79.5118 297.629C79.5595 297.608 79.5979 297.57 79.6203 297.522L80.5905 295.718C80.7349 295.461 80.9717 295.267 81.253 295.177C81.5343 295.087 81.8393 295.107 82.1065 295.233C82.9642 295.66 83.7252 296.259 84.3426 296.992C84.6839 297.381 84.9442 297.834 85.1082 298.324C85.2722 298.815 85.3366 299.334 85.2977 299.849C85.1779 301.264 84.9396 302.666 84.5852 304.041C84.5641 304.119 84.5679 304.202 84.596 304.277C84.6241 304.353 84.6752 304.418 84.742 304.463C84.8088 304.508 84.8881 304.531 84.9687 304.529C85.0493 304.527 85.1273 304.499 85.1916 304.451L85.237 304.413C85.4996 304.214 85.8262 304.12 86.1542 304.147C87.0183 304.253 87.2382 305.125 87.2988 305.876C87.3272 307.032 87.2152 308.187 86.9653 309.317Z" fill="#119726"/>
<path opacity="0.2" d="M86.9653 309.317C86.7485 310.256 86.3458 311.143 85.7807 311.924C85.2157 312.705 84.4999 313.365 83.6756 313.865C82.1267 314.596 80.4051 314.882 78.7031 314.691C76.9781 314.497 75.283 314.095 73.6548 313.493C72.8362 313.221 71.9341 312.857 71.8508 311.849C71.8354 311.584 71.8792 311.32 71.9789 311.075C72.0785 310.83 72.2315 310.61 72.4268 310.431C72.5928 310.273 72.7674 310.123 72.9499 309.984C73.0365 309.921 73.1015 309.833 73.1357 309.732C73.17 309.63 73.1718 309.521 73.141 309.418C73.1102 309.316 73.0482 309.225 72.9637 309.16C72.8792 309.094 72.7763 309.056 72.6694 309.052C72.1864 309.017 71.7056 308.956 71.2292 308.87C70.1147 308.694 69.0676 308.223 68.1972 307.505C67.5762 306.953 67.1022 306.255 66.8176 305.474C66.6568 305.151 66.59 304.789 66.6248 304.43C66.6597 304.071 66.7948 303.729 67.0147 303.442C67.3374 303.181 67.7253 303.014 68.1366 302.957C68.4928 302.881 68.8946 302.813 69.2129 302.76C69.3177 302.746 69.4149 302.698 69.4893 302.623C69.5637 302.548 69.6111 302.45 69.6241 302.346C69.6371 302.241 69.615 302.134 69.5611 302.043C69.5073 301.953 69.4248 301.882 69.3266 301.843L67.8106 301.206C67.3711 301.064 66.973 300.817 66.6509 300.486C66.4521 300.177 66.3227 299.829 66.2717 299.465C66.2207 299.101 66.2492 298.731 66.3553 298.379C66.5448 297.424 66.8707 296.507 67.1133 295.559C67.3796 294.616 67.4134 293.623 67.2118 292.664C70.076 292.346 72.9739 292.541 75.7696 293.24C76.6097 293.413 77.4047 293.759 78.1043 294.255C78.5383 294.644 78.8667 295.137 79.0589 295.687C79.2511 296.237 79.3008 296.827 79.2034 297.401C79.1968 297.453 79.209 297.506 79.2377 297.549C79.2664 297.593 79.3098 297.625 79.36 297.64C79.4103 297.654 79.4641 297.651 79.5118 297.629C79.5595 297.608 79.5979 297.57 79.6203 297.522L80.5905 295.718C80.7349 295.461 80.9717 295.267 81.253 295.177C81.5343 295.087 81.8393 295.107 82.1065 295.233C82.9642 295.66 83.7252 296.259 84.3426 296.992C84.6839 297.381 84.9442 297.834 85.1082 298.324C85.2722 298.815 85.3366 299.334 85.2977 299.849C85.1779 301.264 84.9396 302.666 84.5852 304.041C84.5641 304.119 84.5679 304.202 84.596 304.277C84.6241 304.353 84.6752 304.418 84.742 304.463C84.8088 304.508 84.8881 304.531 84.9687 304.529C85.0493 304.527 85.1273 304.499 85.1916 304.451L85.237 304.413C85.4996 304.214 85.8262 304.12 86.1542 304.147C87.0183 304.253 87.2382 305.125 87.2988 305.876C87.3272 307.032 87.2152 308.187 86.9653 309.317Z" fill="black"/>
<path opacity="0.2" d="M86.9653 309.317C86.7485 310.256 86.3458 311.143 85.7807 311.924C85.2157 312.705 84.4999 313.365 83.6756 313.865C82.1267 314.596 80.4051 314.882 78.7031 314.691C76.9781 314.497 75.283 314.095 73.6548 313.493C72.8362 313.221 71.9341 312.857 71.8508 311.849C71.8354 311.584 71.8792 311.32 71.9789 311.075C72.0785 310.83 72.2315 310.61 72.4268 310.431C72.5928 310.273 72.7674 310.123 72.9499 309.984C73.0365 309.921 73.1015 309.833 73.1357 309.732C73.17 309.63 73.1718 309.521 73.141 309.418C73.1102 309.316 73.0482 309.225 72.9637 309.16C72.8792 309.094 72.7763 309.056 72.6694 309.052C72.1864 309.017 71.7056 308.956 71.2292 308.87C70.1147 308.694 69.0676 308.223 68.1972 307.505C67.5762 306.953 67.1022 306.255 66.8176 305.474C66.6568 305.151 66.59 304.789 66.6248 304.43C66.6597 304.071 66.7948 303.729 67.0147 303.442C67.3374 303.181 67.7253 303.014 68.1366 302.957C68.4928 302.881 68.8946 302.813 69.2129 302.76C69.3177 302.746 69.4149 302.698 69.4893 302.623C69.5637 302.548 69.6111 302.45 69.6241 302.346C69.6371 302.241 69.615 302.134 69.5611 302.043C69.5073 301.953 69.4248 301.882 69.3266 301.843L67.8106 301.206C67.3711 301.064 66.973 300.817 66.6509 300.486C66.4521 300.177 66.3227 299.829 66.2717 299.465C66.2207 299.101 66.2492 298.731 66.3553 298.379C66.5448 297.424 66.8707 296.507 67.1133 295.559C67.3796 294.616 67.4134 293.623 67.2118 292.664C70.076 292.346 72.9739 292.541 75.7696 293.24C76.6097 293.413 77.4047 293.759 78.1043 294.255C78.5383 294.644 78.8667 295.137 79.0589 295.687C79.2511 296.237 79.3008 296.827 79.2034 297.401C79.1968 297.453 79.209 297.506 79.2377 297.549C79.2664 297.593 79.3098 297.625 79.36 297.64C79.4103 297.654 79.4641 297.651 79.5118 297.629C79.5595 297.608 79.5979 297.57 79.6203 297.522L80.5905 295.718C80.7349 295.461 80.9717 295.267 81.253 295.177C81.5343 295.087 81.8393 295.107 82.1065 295.233C82.9642 295.66 83.7252 296.259 84.3426 296.992C84.6839 297.381 84.9442 297.834 85.1082 298.324C85.2722 298.815 85.3366 299.334 85.2977 299.849C85.1779 301.264 84.9396 302.666 84.5852 304.041C84.5641 304.119 84.5679 304.202 84.596 304.277C84.6241 304.353 84.6752 304.418 84.742 304.463C84.8088 304.508 84.8881 304.531 84.9687 304.529C85.0493 304.527 85.1273 304.499 85.1916 304.451L85.237 304.413C85.4996 304.214 85.8262 304.12 86.1542 304.147C87.0183 304.253 87.2382 305.125 87.2988 305.876C87.3272 307.032 87.2152 308.187 86.9653 309.317Z" fill="white"/>
<path d="M82.4249 313.645C81.8997 311.349 81.1376 309.114 80.1509 306.975C80.1507 306.941 80.1431 306.908 80.1287 306.878C80.1143 306.848 80.0934 306.822 80.0675 306.8L79.9084 306.452C80.18 303.787 80.9515 301.198 82.1824 298.819C82.2127 298.763 82.2201 298.698 82.2031 298.637C82.1861 298.576 82.146 298.524 82.0914 298.493C82.0371 298.463 81.9731 298.456 81.9135 298.473C81.8538 298.49 81.8034 298.53 81.773 298.584C80.6134 300.801 79.8442 303.201 79.499 305.679C77.25 300.982 73.8627 296.923 69.645 293.869C69.6198 293.849 69.5907 293.834 69.5596 293.826C69.5284 293.818 69.4959 293.816 69.4641 293.821C69.4322 293.826 69.4017 293.837 69.3744 293.854C69.3471 293.871 69.3236 293.894 69.3054 293.92C69.2872 293.947 69.2746 293.977 69.2685 294.008C69.2623 294.04 69.2628 294.073 69.2697 294.104C69.2767 294.135 69.2901 294.165 69.309 294.191C69.3279 294.217 69.352 294.239 69.3797 294.255C73.6908 297.39 77.1212 301.583 79.3399 306.429C76.789 305.276 73.9574 304.891 71.1914 305.322C71.1301 305.333 71.0757 305.368 71.0401 305.42C71.0046 305.471 70.9908 305.534 71.0019 305.595C71.0113 305.642 71.0344 305.685 71.0681 305.718C71.1018 305.752 71.1447 305.775 71.1914 305.785H71.2747C74.1432 305.349 77.0761 305.818 79.6658 307.126C80.6451 309.245 81.407 311.457 81.9398 313.729C81.9478 313.775 81.9694 313.817 82.0018 313.851C82.0342 313.885 82.076 313.908 82.1217 313.918H82.2127C82.2455 313.917 82.2776 313.908 82.3068 313.893C82.3359 313.878 82.3615 313.856 82.3817 313.83C82.4018 313.805 82.4162 313.775 82.4236 313.743C82.4311 313.711 82.4315 313.677 82.4249 313.645Z" fill="#F0F0F0"/>
<path d="M323.097 215.711L312.576 216.015L302.048 215.711C301.6 222.821 302.988 230.06 304.898 233.6C305.351 234.516 306.084 235.265 306.99 235.738C308.727 236.62 310.647 237.08 312.595 237.08C314.543 237.08 316.464 236.62 318.201 235.738C319.116 235.264 319.847 234.498 320.278 233.562C322.15 229.985 323.552 222.784 323.097 215.711Z" fill="white"/>
<path d="M319.997 211.399C324.121 213.779 324.136 217.637 320.043 220.025C315.95 222.412 309.279 222.405 305.156 220.025C301.032 217.645 301.009 213.779 305.11 211.399C309.211 209.018 315.874 209.018 319.997 211.399Z" fill="#EBEBEB"/>
<path d="M318.36 212.346C321.581 214.203 321.596 217.212 318.398 219.07C315.199 220.927 310.007 220.934 306.785 219.07C303.564 217.205 303.556 214.196 306.747 212.338C308.546 211.424 310.536 210.948 312.554 210.949C314.573 210.95 316.562 211.429 318.36 212.346Z" fill="#E0E0E0"/>
<g opacity="0.15">
<path d="M318.36 212.346C321.581 214.203 321.596 217.212 318.398 219.07C315.199 220.927 310.007 220.934 306.785 219.07C303.564 217.205 303.556 214.196 306.747 212.338C308.546 211.424 310.536 210.948 312.554 210.949C314.573 210.95 316.562 211.429 318.36 212.346Z" fill="black"/>
</g>
<path d="M329.881 170.792C306.164 178.562 305.944 194.435 311.295 205.729C312.644 208.003 316.722 209.246 320.278 195.193L314.047 195.988L321.308 192.312L323.188 186.673L317.124 187.127L324.81 183.891C326.228 179.424 327.921 175.049 329.881 170.792Z" fill="#119726"/>
<path opacity="0.2" d="M329.881 170.792C306.164 178.562 305.944 194.435 311.295 205.729C312.644 208.003 316.722 209.246 320.278 195.193L314.047 195.988L321.308 192.312L323.188 186.673L317.124 187.127L324.81 183.891C326.228 179.424 327.921 175.049 329.881 170.792Z" fill="black"/>
<path opacity="0.2" d="M329.881 170.792C306.164 178.562 305.944 194.435 311.295 205.729C312.644 208.003 316.722 209.246 320.278 195.193L314.047 195.988L321.308 192.312L323.188 186.673L317.124 187.127L324.81 183.891C326.228 179.424 327.921 175.049 329.881 170.792Z" fill="white"/>
<path d="M323.173 174.764C310.666 184.255 309.529 195.139 313.069 206.502C311.818 196.496 310.469 186.385 323.173 174.764Z" fill="white"/>
<path d="M289.708 186.915C313.084 190.205 315.927 204.948 312.819 216.363C311.947 218.713 308.347 220.54 302.707 208.025L308.642 207.737L301.267 205.516L298.576 200.574L304.284 199.991L296.59 198.255C294.532 194.336 292.234 190.549 289.708 186.915Z" fill="#119726"/>
<path opacity="0.2" d="M289.708 186.915C313.084 190.205 315.927 204.948 312.819 216.363C311.947 218.713 308.347 220.54 302.707 208.025L308.642 207.737L301.267 205.516L298.576 200.574L304.284 199.991L296.59 198.255C294.532 194.336 292.234 190.549 289.708 186.915Z" fill="white"/>
<path opacity="0.1" d="M289.708 186.915C313.084 190.205 315.927 204.948 312.819 216.363C311.947 218.713 308.347 220.54 302.707 208.025L308.642 207.737L301.267 205.516L298.576 200.574L304.284 199.991L296.59 198.255C294.532 194.336 292.234 190.549 289.708 186.915Z" fill="black"/>
<path d="M296.613 189.5C309.84 196.261 312.698 206.176 311.295 217.379C310.78 207.851 310.378 198.209 296.613 189.5Z" fill="white"/>
<path d="M336.726 192.441C315.283 192.79 311.076 205.759 312.592 216.394C313.122 218.615 316.162 220.661 322.643 210.027L317.337 209.102L324.227 207.919L327.206 203.773L322.127 202.606L329.253 201.908C331.546 198.602 334.042 195.44 336.726 192.441Z" fill="#119726"/>
<path d="M330.208 193.995C317.534 198.611 313.842 207.252 313.857 217.493C315.373 208.95 316.844 200.301 330.208 193.995Z" fill="white"/>
<path opacity="0.2" d="M336.726 192.441C315.283 192.79 311.076 205.759 312.592 216.394C313.122 218.615 316.162 220.661 322.643 210.027L317.337 209.102L324.227 207.919L327.206 203.773L322.127 202.606L329.253 201.908C331.546 198.602 334.042 195.44 336.726 192.441Z" fill="white"/>
<path d="M254.082 109.159L254.066 116.194L255.317 127.223L257.151 137.963L263.435 138.699L260.866 127.223L255.992 108.235L254.082 109.159Z" fill="#FFA8A7"/>
<path d="M256.576 136.645C260.911 135.03 263.746 137.304 263.746 137.304L264.459 155.701L256.72 151.274L256.576 136.645Z" fill="#60D669"/>
<path d="M256.576 136.645C260.911 135.03 263.746 137.304 263.746 137.304L264.459 155.701L256.72 151.274L256.576 136.645Z" fill="#60D669"/>
<path opacity="0.3" d="M256.576 136.645C260.911 135.03 263.746 137.304 263.746 137.304L264.459 155.701L256.72 151.274L256.576 136.645Z" fill="black"/>
<path opacity="0.3" d="M256.576 136.645C260.911 135.03 263.746 137.304 263.746 137.304L264.459 155.701L256.72 151.274L256.576 136.645Z" fill="white"/>
<path d="M252.717 83.7589C253.43 83.342 254.006 83.6755 254.014 84.5169L254.241 165.077C254.217 165.524 254.087 165.958 253.863 166.346C253.639 166.733 253.327 167.062 252.952 167.306L221.116 185.68C220.404 186.089 219.828 185.755 219.82 184.922L219.593 104.369C219.61 103.914 219.736 103.471 219.96 103.075C220.184 102.679 220.5 102.343 220.881 102.095L252.717 83.7589Z" fill="#60D669"/>
<g opacity="0.2">
<path d="M252.717 83.7589C253.43 83.342 254.006 83.6755 254.014 84.5169L254.241 165.077C254.217 165.524 254.087 165.958 253.863 166.346C253.639 166.733 253.327 167.062 252.952 167.306L221.116 185.68C220.404 186.089 219.828 185.755 219.82 184.922L219.593 104.369C219.61 103.914 219.736 103.471 219.96 103.075C220.184 102.679 220.5 102.343 220.881 102.095L252.717 83.7589Z" fill="black"/>
</g>
<g opacity="0.1">
<path d="M252.717 83.7589C253.43 83.342 254.006 83.6755 254.014 84.5169L254.241 165.077C254.217 165.524 254.087 165.958 253.863 166.346C253.639 166.733 253.327 167.062 252.952 167.306L221.116 185.68C220.404 186.089 219.828 185.755 219.82 184.922L219.593 104.369C219.61 103.914 219.736 103.471 219.96 103.075C220.184 102.679 220.5 102.343 220.881 102.095L252.717 83.7589Z" fill="white"/>
</g>
<path d="M252.278 86.5332C252.581 86.4801 252.649 86.6621 252.573 86.8895L237.254 134.499L252.77 164.319C252.801 164.422 252.802 164.53 252.774 164.634C252.746 164.737 252.689 164.83 252.611 164.903C252.361 165.085 252.24 165.07 252.187 164.971L236.906 135.599L221.836 182.488C221.789 182.647 221.687 182.784 221.548 182.875C221.245 182.928 221.177 182.746 221.253 182.519L236.572 134.924L221.056 105.104C221.026 105.002 221.024 104.893 221.053 104.79C221.081 104.687 221.137 104.593 221.215 104.521C221.473 104.339 221.586 104.346 221.639 104.452L236.921 133.825L251.99 86.9349C252.033 86.7704 252.136 86.6275 252.278 86.5332Z" fill="white"/>
<path d="M233.896 147.052L227.074 144.778L222.579 127.791C222.468 127.284 222.513 126.756 222.708 126.275L223.178 125.093C223.429 124.469 223.548 123.801 223.527 123.129L223.436 120.529C223.436 120.328 223.356 120.136 223.214 119.993C223.072 119.851 222.879 119.771 222.678 119.771C222.494 119.77 222.316 119.835 222.176 119.955C222.037 120.075 221.946 120.241 221.92 120.423L221.518 122.697L220.563 123.796L219.699 120.711V116.792L217.758 119.612C217.234 120.37 217.025 121.303 217.175 122.212L217.986 127.147L220.176 146.241C220.335 147.622 220.869 148.934 221.72 150.034C222.571 151.133 223.707 151.979 225.005 152.479L232.183 155.253L233.896 147.052Z" fill="#FFA8A7"/>
<path d="M248.533 250.405C248.289 250.968 247.889 251.448 247.379 251.79C246.87 252.131 246.273 252.319 245.66 252.331C244.438 252.334 243.22 252.179 242.037 251.868C239.346 251.383 236.731 251.868 234.055 251.8C233.173 251.807 232.293 251.71 231.433 251.512C230.556 251.321 229.76 250.859 229.159 250.193C228.823 249.789 228.6 249.302 228.514 248.783C228.458 249.174 228.486 249.573 228.597 249.953C228.708 250.332 228.9 250.683 229.159 250.981C229.76 251.648 230.556 252.109 231.433 252.3C232.293 252.498 233.173 252.595 234.055 252.588C236.746 252.649 239.361 252.171 242.037 252.657C243.22 252.967 244.438 253.123 245.66 253.119C246.273 253.107 246.87 252.919 247.379 252.578C247.889 252.237 248.289 251.756 248.533 251.194C248.649 250.79 248.68 250.367 248.624 249.951C248.608 250.105 248.578 250.257 248.533 250.405Z" fill="#455A64"/>
<path d="M248.465 248.169L247.965 245.721C247.907 245.284 247.768 244.863 247.555 244.477C247.446 244.285 247.287 244.126 247.095 244.017C246.903 243.907 246.685 243.852 246.464 243.856C244.986 243.659 242.909 243.098 241.688 243.97C239.748 245.294 237.434 245.964 235.086 245.88C233.874 245.734 232.652 245.686 231.433 245.736C230.823 245.769 230.234 245.972 229.734 246.323C229.234 246.674 228.843 247.159 228.605 247.722C228.501 248.066 228.481 248.429 228.545 248.783C228.63 249.302 228.853 249.788 229.189 250.193C229.79 250.859 230.586 251.32 231.463 251.512C232.323 251.71 233.203 251.806 234.086 251.8C236.776 251.86 239.392 251.383 242.067 251.868C243.25 252.179 244.468 252.334 245.691 252.33C246.304 252.319 246.9 252.131 247.41 251.789C247.919 251.448 248.319 250.968 248.563 250.405C248.608 250.257 248.639 250.104 248.654 249.95C248.682 249.35 248.618 248.75 248.465 248.169Z" fill="#37474F"/>
<path d="M241.325 241.4L241.226 244.591C241.216 244.917 241.331 245.235 241.548 245.477C241.766 245.72 242.069 245.87 242.394 245.895C243.463 245.983 244.538 245.983 245.608 245.895C246.041 245.856 246.445 245.662 246.747 245.349C247.049 245.035 247.229 244.624 247.252 244.19L247.381 241.832L241.325 241.4Z" fill="#FFA8A7"/>
<path d="M262.147 239.702C262.137 240.174 261.989 240.632 261.722 241.021C261.344 241.487 260.801 241.79 260.206 241.87C259.504 241.995 258.781 241.919 258.12 241.65C257.458 241.382 256.886 240.933 256.469 240.354C256.068 239.778 255.84 239.088 255.461 238.497C254.884 237.701 254.174 237.012 253.362 236.458C252.551 235.906 251.839 235.222 251.254 234.434C250.977 234.05 250.796 233.606 250.727 233.137C250.657 232.669 250.7 232.191 250.853 231.743C250.775 231.847 250.709 231.959 250.656 232.077C250.474 232.549 250.413 233.059 250.48 233.561C250.546 234.063 250.737 234.54 251.035 234.949C251.63 235.761 252.357 236.465 253.187 237.034C254.015 237.606 254.738 238.317 255.325 239.134C255.711 239.748 255.939 240.453 256.348 241.051C256.767 241.645 257.345 242.108 258.015 242.389C258.686 242.669 259.421 242.754 260.138 242.636C260.733 242.541 261.273 242.231 261.654 241.764C261.995 241.216 262.151 240.573 262.101 239.93C262.121 239.855 262.136 239.779 262.147 239.702Z" fill="#455A64"/>
<path d="M261.184 235.738C260.214 234.04 258.213 232.804 256.674 231.599C255.828 230.868 254.788 230.397 253.68 230.242C253.127 230.177 252.568 230.278 252.072 230.531C251.577 230.785 251.168 231.181 250.898 231.667C250.895 231.698 250.895 231.728 250.898 231.758C250.746 232.206 250.702 232.684 250.772 233.153C250.842 233.621 251.023 234.065 251.3 234.449C251.884 235.237 252.597 235.921 253.407 236.473C254.22 237.027 254.93 237.716 255.507 238.512C255.886 239.103 256.113 239.793 256.515 240.369C256.932 240.948 257.504 241.397 258.165 241.665C258.826 241.934 259.55 242.01 260.252 241.885C260.847 241.806 261.389 241.502 261.768 241.036C262.035 240.647 262.183 240.189 262.193 239.717C262.193 239.566 262.193 239.414 262.193 239.262C262.155 238.022 261.808 236.811 261.184 235.738Z" fill="#37474F"/>
<path d="M256.962 234.222V237.117C257.679 237.459 258.468 237.619 259.261 237.585C260.054 237.55 260.826 237.322 261.51 236.92L261.783 234.313L256.962 234.222Z" fill="#FFA8A7"/>
<path d="M262.518 181.639C263.39 184.255 262.321 196.64 261.813 208.526C263.701 213.021 263.193 225.77 262.101 234.828C262.101 234.828 260.221 235.988 256.795 234.828L252.52 209.814L251.921 195.685C251.921 195.685 250.853 208.222 249.647 216.265C250.807 222.42 250.519 223.58 247.654 242.522C246.659 243.021 245.561 243.281 244.447 243.281C243.334 243.281 242.236 243.021 241.241 242.522C239.627 215.909 240.218 191.653 240.529 182.936L262.518 181.639Z" fill="#455A64"/>
<path opacity="0.3" d="M252.308 204.304L251.823 192.782C254.802 192.782 257.568 190.554 259.668 188.446C258.258 190.736 256.189 192.545 253.733 193.639L252.308 204.304Z" fill="black"/>
<path d="M240.066 183.656C253.354 189.219 261.965 184.194 263.132 181.571C262.518 172.392 264.694 161.643 264.527 157.08C264.36 152.517 263.769 147.37 256.72 148.401L249.193 149.159L245.403 150.084L240.855 159.597L240.066 183.656Z" fill="#E8F923"/>
<path opacity="0.3" d="M240.066 183.656C253.354 189.219 261.965 184.194 263.132 181.571C262.518 172.392 264.694 161.643 264.527 157.08C264.36 152.517 263.769 147.37 256.72 148.401L249.193 149.159L245.403 150.084L240.855 159.597L240.066 183.656Z" fill="#D9D9D9"/>
<path d="M256.72 144.778C256.986 144.796 257.253 144.761 257.505 144.676C257.758 144.59 257.991 144.454 258.19 144.278C258.344 144.111 258.457 143.91 258.517 143.691C258.578 143.472 258.585 143.242 258.539 143.019C258.762 142.976 258.971 142.879 259.148 142.736C259.325 142.593 259.465 142.41 259.555 142.201C259.622 141.968 259.636 141.723 259.595 141.484C259.555 141.245 259.46 141.018 259.32 140.821C259.647 140.742 259.953 140.592 260.215 140.381C260.477 140.17 260.689 139.904 260.836 139.601C260.985 139.294 261.068 138.96 261.08 138.619C261.092 138.278 261.032 137.938 260.904 137.622C261.261 137.529 261.588 137.346 261.854 137.09C262.119 136.833 262.314 136.513 262.42 136.159C262.535 135.795 262.557 135.407 262.482 135.032C262.408 134.657 262.241 134.307 261.995 134.014C262.29 133.6 262.471 133.116 262.519 132.611C262.567 132.105 262.48 131.595 262.268 131.134C262.035 130.667 261.685 130.267 261.252 129.975C260.819 129.683 260.318 129.508 259.797 129.466C259.866 128.976 259.813 128.477 259.644 128.012C259.475 127.546 259.194 127.13 258.827 126.798C258.454 126.484 258.007 126.27 257.528 126.176C257.05 126.082 256.555 126.111 256.091 126.26C255.921 125.848 255.651 125.486 255.303 125.208C254.956 124.93 254.544 124.744 254.106 124.668C253.667 124.593 253.217 124.629 252.796 124.775C252.376 124.921 251.999 125.171 251.702 125.502C251.484 125.256 251.209 125.068 250.901 124.954C250.592 124.841 250.261 124.805 249.936 124.85C249.603 124.883 249.282 124.995 249.002 125.179C248.723 125.362 248.491 125.611 248.329 125.904C247.909 125.715 247.449 125.638 246.991 125.678C246.534 125.718 246.094 125.875 245.714 126.133C245.334 126.392 245.026 126.743 244.821 127.154C244.615 127.565 244.518 128.022 244.539 128.481C244.204 128.583 243.912 128.791 243.707 129.075C243.502 129.358 243.395 129.7 243.402 130.05C243.429 130.41 243.571 130.751 243.807 131.024C244.043 131.297 244.361 131.487 244.713 131.566C245.379 135.166 246.57 138.649 248.245 141.905C249.003 143.36 249.905 144.831 251.353 145.581C252.801 146.332 255.378 145.938 256.72 144.778Z" fill="#455A64"/>
<path d="M256.72 144.778C256.986 144.796 257.253 144.761 257.505 144.676C257.758 144.59 257.991 144.454 258.19 144.278C258.344 144.111 258.457 143.91 258.517 143.691C258.578 143.472 258.585 143.242 258.539 143.019C258.762 142.976 258.971 142.879 259.148 142.736C259.325 142.593 259.465 142.41 259.555 142.201C259.622 141.968 259.636 141.723 259.595 141.484C259.555 141.245 259.46 141.018 259.32 140.821C259.647 140.742 259.953 140.592 260.215 140.381C260.477 140.17 260.689 139.904 260.836 139.601C260.985 139.294 261.068 138.96 261.08 138.619C261.092 138.278 261.032 137.938 260.904 137.622C261.261 137.529 261.588 137.346 261.854 137.09C262.119 136.833 262.314 136.513 262.42 136.159C262.535 135.795 262.557 135.407 262.482 135.032C262.408 134.657 262.241 134.307 261.995 134.014C262.29 133.6 262.471 133.116 262.519 132.611C262.567 132.105 262.48 131.595 262.268 131.134C262.035 130.667 261.685 130.267 261.252 129.975C260.819 129.683 260.318 129.508 259.797 129.466C259.866 128.976 259.813 128.477 259.644 128.012C259.475 127.546 259.194 127.13 258.827 126.798C258.454 126.484 258.007 126.27 257.528 126.176C257.05 126.082 256.555 126.111 256.091 126.26C255.921 125.848 255.651 125.486 255.303 125.208C254.956 124.93 254.544 124.744 254.106 124.668C253.667 124.593 253.217 124.629 252.796 124.775C252.376 124.921 251.999 125.171 251.702 125.502C251.484 125.256 251.209 125.068 250.901 124.954C250.592 124.841 250.261 124.805 249.936 124.85C249.603 124.883 249.282 124.995 249.002 125.179C248.723 125.362 248.491 125.611 248.329 125.904C247.909 125.715 247.449 125.638 246.991 125.678C246.534 125.718 246.094 125.875 245.714 126.133C245.334 126.392 245.026 126.743 244.821 127.154C244.615 127.565 244.518 128.022 244.539 128.481C244.204 128.583 243.912 128.791 243.707 129.075C243.502 129.358 243.395 129.7 243.402 130.05C243.429 130.41 243.571 130.751 243.807 131.024C244.043 131.297 244.361 131.487 244.713 131.566C245.379 135.166 246.57 138.649 248.245 141.905C249.003 143.36 249.905 144.831 251.353 145.581C252.801 146.332 255.378 145.938 256.72 144.778Z" fill="#60D669"/>
<path opacity="0.7" d="M256.72 144.778C256.986 144.796 257.253 144.761 257.505 144.676C257.758 144.59 257.991 144.454 258.19 144.278C258.344 144.111 258.457 143.91 258.517 143.691C258.578 143.472 258.585 143.242 258.539 143.019C258.762 142.976 258.971 142.879 259.148 142.736C259.325 142.593 259.465 142.41 259.555 142.201C259.622 141.968 259.636 141.723 259.595 141.484C259.555 141.245 259.46 141.018 259.32 140.821C259.647 140.742 259.953 140.592 260.215 140.381C260.477 140.17 260.689 139.904 260.836 139.601C260.985 139.294 261.068 138.96 261.08 138.619C261.092 138.278 261.032 137.938 260.904 137.622C261.261 137.529 261.588 137.346 261.854 137.09C262.119 136.833 262.314 136.513 262.42 136.159C262.535 135.795 262.557 135.407 262.482 135.032C262.408 134.657 262.241 134.307 261.995 134.014C262.29 133.6 262.471 133.116 262.519 132.611C262.567 132.105 262.48 131.595 262.268 131.134C262.035 130.667 261.685 130.267 261.252 129.975C260.819 129.683 260.318 129.508 259.797 129.466C259.866 128.976 259.813 128.477 259.644 128.012C259.475 127.546 259.194 127.13 258.827 126.798C258.454 126.484 258.007 126.27 257.528 126.176C257.05 126.082 256.555 126.111 256.091 126.26C255.921 125.848 255.651 125.486 255.303 125.208C254.956 124.93 254.544 124.744 254.106 124.668C253.667 124.593 253.217 124.629 252.796 124.775C252.376 124.921 251.999 125.171 251.702 125.502C251.484 125.256 251.209 125.068 250.901 124.954C250.592 124.841 250.261 124.805 249.936 124.85C249.603 124.883 249.282 124.995 249.002 125.179C248.723 125.362 248.491 125.611 248.329 125.904C247.909 125.715 247.449 125.638 246.991 125.678C246.534 125.718 246.094 125.875 245.714 126.133C245.334 126.392 245.026 126.743 244.821 127.154C244.615 127.565 244.518 128.022 244.539 128.481C244.204 128.583 243.912 128.791 243.707 129.075C243.502 129.358 243.395 129.7 243.402 130.05C243.429 130.41 243.571 130.751 243.807 131.024C244.043 131.297 244.361 131.487 244.713 131.566C245.379 135.166 246.57 138.649 248.245 141.905C249.003 143.36 249.905 144.831 251.353 145.581C252.801 146.332 255.378 145.938 256.72 144.778Z" fill="black"/>
<path d="M244.182 136.296L242.628 139.002L244.334 139.631L244.182 136.296Z" fill="#F28F8F"/>
<path d="M244.72 131.573C243.686 135.326 243.533 139.266 244.273 143.088C244.357 143.747 244.604 144.375 244.993 144.914C245.507 145.466 246.218 145.793 246.972 145.824C247.718 145.851 248.465 145.78 249.193 145.612V149.136C251.868 149.765 254.62 150.016 256.719 148.378V144.778C255.211 145.261 253.607 145.362 252.05 145.073C250.201 144.073 249.829 140.692 250.087 139.805C250.253 140.022 250.478 140.185 250.735 140.275C250.992 140.365 251.27 140.378 251.535 140.313C251.788 140.242 252.024 140.12 252.23 139.956C252.435 139.792 252.606 139.589 252.732 139.358C252.982 138.888 253.134 138.372 253.18 137.842C253.315 137.21 253.218 136.551 252.907 135.985C252.672 135.668 252.345 135.431 251.971 135.305C251.597 135.178 251.194 135.17 250.815 135.28C250.056 135.52 249.421 136.048 249.049 136.751C248.931 136.969 248.827 137.194 248.738 137.425C248.707 137.516 248.646 137.594 248.565 137.646C248.484 137.697 248.387 137.719 248.292 137.707C248.197 137.696 248.108 137.651 248.041 137.582C247.975 137.513 247.934 137.423 247.927 137.327C247.835 136.312 248.018 135.29 248.457 134.371C248.151 134.34 247.856 134.241 247.594 134.081C247.331 133.921 247.108 133.704 246.941 133.446C246.765 133.206 246.646 132.929 246.595 132.635C246.543 132.342 246.561 132.041 246.646 131.755C245.998 131.803 245.347 131.742 244.72 131.573Z" fill="#FFA8A7"/>
<path d="M254.082 109.152L252.846 106.203L252.225 103.406C252.194 103.232 252.224 103.053 252.312 102.899C252.399 102.746 252.537 102.627 252.702 102.565C252.881 102.516 253.072 102.535 253.238 102.617C253.404 102.699 253.535 102.84 253.604 103.012L254.127 104.528V100.238L255.916 103.444C256.183 103.925 256.301 104.473 256.257 105.021L255.992 108.22L254.082 109.152Z" fill="#FFA8A7"/>
<path d="M245.395 150.084C241.158 148.681 233.616 146.407 233.616 146.407C230.235 149.818 230.523 155.329 230.523 155.329L240.794 159.604C250.595 162.682 252.028 152.252 245.395 150.084Z" fill="#60D669"/>
<path opacity="0.3" d="M245.395 150.084C241.158 148.681 233.616 146.407 233.616 146.407C230.235 149.818 230.523 155.329 230.523 155.329L240.794 159.604C250.595 162.682 252.028 152.252 245.395 150.084Z" fill="black"/>
<path opacity="0.3" d="M245.395 150.084C241.158 148.681 233.616 146.407 233.616 146.407C230.235 149.818 230.523 155.329 230.523 155.329L240.794 159.604C250.595 162.682 252.028 152.252 245.395 150.084Z" fill="white"/>
<path d="M249.26 240.733L234.98 230.167L229.477 213.619C229.477 212.384 229.431 211.133 229.401 209.89C229.397 209.516 229.29 209.151 229.093 208.834C228.895 208.517 228.613 208.261 228.279 208.094C227.242 207.587 226.123 207.269 224.974 207.154C224.76 206.362 224.397 205.619 223.905 204.963C223.775 204.804 223.595 204.693 223.393 204.651C223.192 204.608 222.982 204.635 222.799 204.728C222.687 204.784 222.587 204.863 222.508 204.959C222.428 205.056 222.369 205.168 222.334 205.288C222.3 205.409 222.291 205.535 222.309 205.659C222.326 205.783 222.369 205.903 222.435 206.009C223.615 207.81 224.39 209.845 224.709 211.975C223.958 211.587 223.279 211.074 222.7 210.459C222.566 210.311 222.397 210.198 222.209 210.13C222.021 210.062 221.82 210.041 221.622 210.068C221.424 210.096 221.236 210.172 221.073 210.289C220.911 210.405 220.78 210.56 220.691 210.739C221.728 212.796 223.426 214.446 225.512 215.424L228.105 232.388C228.349 234.018 229.153 235.514 230.379 236.617L240.953 246.115L249.26 240.733Z" fill="#FFA8A7"/>
<path d="M234.98 230.167L232.266 222.094C229.741 225.481 228.396 229.603 228.438 233.828C228.836 234.912 229.491 235.882 230.349 236.655L240.923 246.153L249.261 240.756L234.98 230.167Z" fill="#F28F8F"/>
<path d="M238.671 342.388C238.365 342.838 237.965 343.216 237.499 343.497C237.034 343.778 236.513 343.956 235.973 344.018C234.735 344.129 233.487 344.05 232.274 343.783C230.44 343.527 228.584 343.479 226.74 343.639C225.602 343.794 224.455 343.878 223.306 343.889C222.146 343.899 221.013 343.541 220.07 342.866C219.422 342.354 218.99 341.619 218.857 340.804C218.805 341.333 218.888 341.866 219.101 342.353C219.313 342.84 219.647 343.265 220.07 343.586C221.013 344.261 222.146 344.619 223.306 344.609C224.455 344.598 225.602 344.514 226.74 344.359C228.584 344.199 230.44 344.247 232.274 344.503C233.514 344.796 234.791 344.905 236.064 344.829C236.604 344.767 237.125 344.589 237.59 344.308C238.056 344.027 238.456 343.649 238.762 343.199L238.671 342.388Z" fill="#263238"/>
<path d="M225.255 340.206C226.285 340.206 225.906 338.69 226.892 337.659C226.49 337.659 226.088 337.659 225.687 337.659C224.807 338.955 224.557 340.206 225.255 340.206Z" fill="white"/>
<path d="M227.4 340.13C228.439 340.13 228.158 338.31 229.181 337.249C228.954 337.325 228.711 337.393 228.476 337.446C228.241 337.499 228.067 337.53 227.862 337.56C226.953 338.826 226.695 340.13 227.4 340.13Z" fill="white"/>
<path d="M237.603 336.635C237.534 336.302 237.345 336.005 237.072 335.801L231.493 335.657C230.909 336.401 230.118 336.955 229.219 337.249C228.203 338.31 228.461 340.13 227.438 340.13C226.733 340.13 226.991 338.849 227.9 337.56C227.582 337.606 227.256 337.636 226.93 337.659C225.945 338.682 226.324 340.205 225.293 340.205C224.595 340.205 224.846 338.955 225.725 337.689H224.967L224.254 337.643C222.208 339.266 222.033 341.024 222.299 343.783C222.652 343.844 223.009 343.882 223.367 343.897C224.516 343.885 225.663 343.802 226.801 343.647C228.645 343.486 230.501 343.535 232.335 343.791C233.548 344.057 234.796 344.137 236.034 344.026C236.574 343.964 237.095 343.786 237.56 343.505C238.026 343.224 238.426 342.845 238.732 342.396L237.603 336.635Z" fill="#455A64"/>
<path d="M224.194 337.636C223.272 337.488 222.333 337.488 221.412 337.636C220.839 337.749 220.307 338.01 219.866 338.393C219.426 338.776 219.094 339.268 218.903 339.819C218.823 340.141 218.808 340.476 218.857 340.804C218.99 341.619 219.422 342.354 220.07 342.866C220.705 343.346 221.451 343.658 222.238 343.776C221.973 341.016 222.147 339.258 224.194 337.636Z" fill="white"/>
<path d="M231.334 334.073V336.757C231.336 337.049 231.453 337.33 231.66 337.537C231.867 337.744 232.148 337.861 232.441 337.863H235.253C235.722 337.862 236.172 337.678 236.508 337.352C236.844 337.025 237.041 336.581 237.057 336.112L237.125 334.073H231.334Z" fill="#FFA8A7"/>
<path d="M249.913 332.876C249.76 333.205 249.522 333.489 249.223 333.696C248.925 333.904 248.577 334.029 248.215 334.058C247.465 334.115 246.716 333.932 246.077 333.535C245.115 332.921 244.736 331.959 244.076 331.087C243.386 330.243 242.603 329.48 241.741 328.813C240.82 328.125 240.061 327.243 239.52 326.228C239.386 325.927 239.297 325.608 239.255 325.281C239.171 325.9 239.263 326.53 239.52 327.1C240.059 328.114 240.818 328.994 241.741 329.677C242.601 330.346 243.384 331.109 244.076 331.951C244.736 332.815 245.115 333.785 246.077 334.399C246.716 334.796 247.465 334.979 248.215 334.922C248.577 334.892 248.924 334.766 249.222 334.558C249.52 334.351 249.758 334.069 249.913 333.74C250.026 333.243 250.059 332.731 250.011 332.224C250.014 332.445 249.98 332.665 249.913 332.876Z" fill="#263238"/>
<path d="M243.576 326.986C243.483 327.119 243.435 327.278 243.439 327.441C243.457 327.519 243.494 327.593 243.547 327.653C243.6 327.714 243.667 327.761 243.742 327.789C243.852 327.819 243.968 327.819 244.078 327.791C244.188 327.764 244.289 327.708 244.372 327.63C244.536 327.473 244.681 327.298 244.804 327.107C245.18 326.634 245.677 326.272 246.244 326.061C246.521 325.963 246.808 325.9 247.1 325.872L246.403 325.242C245.962 325.262 245.53 325.368 245.13 325.553C244.478 325.862 243.936 326.362 243.576 326.986Z" fill="white"/>
<path d="M243.727 324.772C243.074 325.079 242.532 325.579 242.173 326.205C242.074 326.335 242.026 326.497 242.037 326.66C242.053 326.739 242.089 326.813 242.143 326.874C242.196 326.935 242.264 326.981 242.34 327.009C242.45 327.037 242.565 327.037 242.675 327.01C242.785 326.982 242.886 326.927 242.969 326.849C243.129 326.689 243.274 326.514 243.401 326.326C243.775 325.855 244.271 325.493 244.834 325.28C245.284 325.114 245.766 325.052 246.244 325.098L245.554 324.469C244.929 324.406 244.298 324.51 243.727 324.772Z" fill="white"/>
<path d="M245.114 324.075C244.481 323.456 243.738 322.96 242.924 322.612C242.43 322.392 241.885 322.314 241.35 322.387C240.814 322.459 240.309 322.679 239.892 323.022C239.609 323.321 239.402 323.684 239.286 324.079C239.17 324.474 239.149 324.891 239.225 325.296C239.267 325.623 239.356 325.942 239.49 326.243C239.67 326.636 239.902 327.003 240.18 327.335C240.475 324.924 242.56 323.802 245.114 324.075Z" fill="white"/>
<path d="M249.965 330.526C249.979 329.71 249.792 328.903 249.42 328.176L248.063 326.759L247.108 325.872C246.816 325.9 246.528 325.963 246.251 326.061C245.685 326.272 245.187 326.634 244.811 327.107C244.688 327.298 244.543 327.474 244.379 327.63C244.296 327.708 244.195 327.764 244.085 327.792C243.975 327.819 243.86 327.819 243.75 327.789C243.674 327.761 243.607 327.714 243.554 327.654C243.501 327.593 243.464 327.52 243.447 327.441C243.442 327.279 243.49 327.119 243.583 326.986C243.943 326.362 244.485 325.862 245.137 325.553C245.537 325.368 245.97 325.262 246.41 325.243L246.251 325.099C245.774 325.052 245.292 325.114 244.841 325.28C244.278 325.493 243.783 325.855 243.409 326.327C243.281 326.514 243.137 326.689 242.977 326.85C242.894 326.927 242.792 326.982 242.682 327.01C242.572 327.038 242.457 327.037 242.347 327.009C242.271 326.982 242.203 326.935 242.15 326.874C242.097 326.813 242.061 326.739 242.044 326.66C242.033 326.497 242.082 326.335 242.181 326.205C242.514 325.618 243.011 325.141 243.612 324.832C244.212 324.524 244.89 324.398 245.561 324.469L245.144 324.098C242.59 323.825 240.506 324.947 240.24 327.342C240.699 327.892 241.206 328.4 241.756 328.858C242.618 329.525 243.401 330.288 244.091 331.132C244.75 332.004 245.129 332.967 246.092 333.581C246.731 333.977 247.48 334.16 248.23 334.104C248.467 334.108 248.703 334.064 248.924 333.975C249.144 333.885 249.344 333.752 249.512 333.584C249.68 333.416 249.812 333.215 249.9 332.994C249.988 332.774 250.031 332.537 250.026 332.3C250.041 331.625 249.981 330.768 249.965 330.526Z" fill="#455A64"/>
<path d="M245.077 326.281L245.236 329.161C245.896 329.578 246.668 329.783 247.449 329.749C248.229 329.715 248.98 329.444 249.602 328.972L249.723 326.281H245.077Z" fill="#FFA8A7"/>
<path d="M248.927 264.451C248.825 264.307 248.733 264.154 248.654 263.996C242.888 267.012 236.205 267.771 229.909 266.126C228.575 276.018 227.438 292.755 228.135 303.799C228.719 316.685 231.084 334.877 231.084 334.877C234.169 335.801 236.488 335.233 237.36 334.566C238.391 321.809 240.65 313.069 238.876 304.632C240.043 298.743 240.801 291.337 240.801 291.337L241.688 304.36L244.72 327.266C245.568 327.701 246.516 327.904 247.468 327.855C248.419 327.805 249.341 327.506 250.14 326.986C252.331 313.895 253.172 305.004 251.239 298.515C254.172 277.011 254.324 271.515 248.927 264.451Z" fill="#60D669"/>
<path opacity="0.4" d="M248.927 264.451C248.825 264.307 248.733 264.154 248.654 263.996C242.888 267.012 236.205 267.771 229.909 266.126C228.575 276.018 227.438 292.755 228.135 303.799C228.719 316.685 231.084 334.877 231.084 334.877C234.169 335.801 236.488 335.233 237.36 334.566C238.391 321.809 240.65 313.069 238.876 304.632C240.043 298.743 240.801 291.337 240.801 291.337L241.688 304.36L244.72 327.266C245.568 327.701 246.516 327.904 247.468 327.855C248.419 327.805 249.341 327.506 250.14 326.986C252.331 313.895 253.172 305.004 251.239 298.515C254.172 277.011 254.324 271.515 248.927 264.451Z" fill="black"/>
<path opacity="0.1" d="M248.927 264.451C248.825 264.307 248.733 264.154 248.654 263.996C242.888 267.012 236.205 267.771 229.909 266.126C228.575 276.018 227.438 292.755 228.135 303.799C228.719 316.685 231.084 334.877 231.084 334.877C234.169 335.801 236.488 335.233 237.36 334.566C238.391 321.809 240.65 313.069 238.876 304.632C240.043 298.743 240.801 291.337 240.801 291.337L241.688 304.36L244.72 327.266C245.568 327.701 246.516 327.904 247.468 327.855C248.419 327.805 249.341 327.506 250.14 326.986C252.331 313.895 253.172 305.004 251.239 298.515C254.172 277.011 254.324 271.515 248.927 264.451Z" fill="#11841F"/>
<path opacity="0.2" d="M242.12 288.745L243.735 281.961C245.025 281.747 246.258 281.271 247.356 280.56C248.454 279.849 249.394 278.92 250.117 277.83C247.883 279.582 245.134 280.552 242.295 280.589L240.824 291.322L241.135 295.908L241.264 294.233C241.401 292.383 241.688 290.548 242.12 288.745Z" fill="black"/>
<path d="M237.254 241.158L232.539 242.09C231.501 243.993 230.439 245.789 229.393 247.692C228.635 249.132 227.802 250.655 227.877 252.293C227.921 253.166 228.208 254.009 228.706 254.727C229.205 255.445 229.894 256.01 230.697 256.356L228.423 272.493C237.163 277.799 251.33 274.07 252.634 269.34C251.368 266.081 250.026 264.898 249.2 261.048C248.601 258.213 250.019 254.226 250.261 253.089C250.702 251.35 250.971 249.573 251.065 247.783C251.157 245.98 250.722 244.189 249.814 242.628V242.583C249.193 241.652 248.315 240.922 247.287 240.48C246.259 240.039 245.125 239.906 244.023 240.096L237.254 241.158Z" fill="#E4EF5A"/>
<path d="M243.235 237.39C243.903 237.139 244.506 236.741 244.999 236.225C245.492 235.71 245.863 235.09 246.085 234.411C246.517 232.994 246.214 231.485 246.63 230.06C246.835 229.363 247.207 228.772 247.388 228.044C247.572 227.268 247.636 226.467 247.578 225.672C247.389 224.361 246.874 223.118 246.079 222.058C245.284 220.999 244.236 220.156 243.03 219.608C240.191 218.337 237.054 217.885 233.972 218.304C232.731 218.432 231.567 218.965 230.659 219.82C230.25 220.281 230.037 220.883 230.065 221.499C230.093 222.115 230.361 222.696 230.811 223.117C230.515 223.326 230.266 223.596 230.082 223.908C229.898 224.221 229.782 224.568 229.742 224.929C229.739 225.395 229.883 225.851 230.156 226.23C230.429 226.609 230.815 226.891 231.258 227.036C232.138 235.473 235.988 237.17 237.989 237.898C239.99 238.626 241.393 239.164 243.235 237.39Z" fill="#263238"/>
<path d="M230.75 229.863L229.295 232.387L230.894 232.979L230.75 229.863Z" fill="#FFA8A7"/>
<path d="M230.583 228.734C230.818 226.513 231.47 224.421 232.918 223.36C232.675 224.747 232.918 226.725 234.351 227.787C234.109 228.958 234.188 230.173 234.578 231.304C234.725 230.571 235.102 229.905 235.654 229.401C235.923 229.141 236.26 228.962 236.625 228.883C236.991 228.804 237.371 228.828 237.724 228.954C238.203 229.185 238.575 229.592 238.762 230.091C238.958 230.569 239.011 231.094 238.916 231.602C238.822 232.111 238.582 232.581 238.227 232.957C237.872 233.332 237.416 233.598 236.915 233.722C236.413 233.845 235.886 233.822 235.397 233.653C235.597 234.639 236.08 235.545 236.787 236.261C237.493 236.977 238.393 237.472 239.376 237.686C240.663 237.969 242.005 237.866 243.234 237.39L243.841 240.309C241.4 242.909 237.239 241.158 237.239 241.158L236.693 238.217C231.902 238.505 231.455 238.421 230.924 235.783C230.492 233.46 230.377 231.088 230.583 228.734Z" fill="#FFA8A7"/>
<path d="M245.501 224.148L245.023 222.291C244.926 222.139 244.779 222.027 244.606 221.974C244.434 221.921 244.249 221.931 244.083 222.003C243.927 222.076 243.791 222.188 243.687 222.326C243.584 222.465 243.517 222.628 243.492 222.799C243.442 223.146 243.489 223.5 243.629 223.822C243.713 224.113 243.876 224.375 244.098 224.58C244.208 224.676 244.338 224.746 244.479 224.784C244.619 224.822 244.767 224.828 244.91 224.8C245.19 224.694 245.524 224.436 245.501 224.148Z" fill="#60D669"/>
<path d="M245.13 224.209C245.844 224.09 246.577 224.199 247.225 224.522C247.873 224.845 248.402 225.364 248.738 226.005C249.377 227.314 249.53 228.808 249.17 230.22C248.723 232.342 247.616 234.26 246.661 236.208C245.706 238.156 244.887 240.278 245.077 242.439C245.319 245.281 247.601 247.517 250.383 248.253C250.043 247.97 249.77 247.617 249.581 247.217C249.393 246.818 249.294 246.382 249.291 245.941C249.655 246.474 250.126 246.926 250.674 247.268C251.222 247.61 251.835 247.834 252.475 247.927C253.103 248.014 253.744 247.967 254.353 247.788C254.962 247.609 255.526 247.302 256.007 246.888C255.449 246.901 254.893 246.803 254.373 246.6C253.853 246.397 253.377 246.093 252.975 245.706C253.729 245.838 254.507 245.73 255.196 245.395C252.922 244.099 252.111 241.074 252.399 238.436C252.687 235.799 253.778 233.327 254.271 230.72C254.764 228.112 254.529 225.111 252.596 223.299C251.804 222.633 250.871 222.156 249.868 221.904C248.865 221.652 247.817 221.631 246.805 221.844C246.139 221.961 245.485 222.136 244.849 222.367C243.856 222.609 244.432 224.368 245.13 224.209Z" fill="#263238"/>
<path d="M201.961 233.714L208.95 253.975L223.405 245.956L216.492 225.914L201.961 233.714Z" fill="#60D669"/>
<path opacity="0.3" d="M201.961 233.714L208.95 253.975L223.405 245.956L216.492 225.914L201.961 233.714Z" fill="black"/>
<path opacity="0.2" d="M201.961 233.714L208.95 253.975L223.405 245.956L216.492 225.914L201.961 233.714Z" fill="white"/>
<path d="M221.26 245.13L215.507 228.446L204.114 234.556L209.936 251.413L221.26 245.13Z" fill="white"/>
<path d="M213.498 229.681L207.169 233.001L206.896 232.16L208.124 231.076L211.588 229.333L213.165 229.037L213.498 229.681Z" fill="#455A64"/>
<path d="M211.588 229.333L211.315 228.688L207.927 230.508L208.124 231.076L211.588 229.333Z" fill="#37474F"/>
<path d="M213.278 227.635L205.63 231.743L205.296 230.947L213.02 226.892L213.278 227.635Z" fill="#455A64"/>
<path d="M211.209 227.847C210.542 225.74 206.54 227.718 207.32 229.886L211.209 227.847Z" fill="#37474F"/>
<path d="M229.295 243.955L219.107 257L209.837 247.904C209.32 247.393 208.989 246.723 208.897 246.001C208.45 242.545 207.495 240.074 206.259 240.506C205.501 240.779 206.479 244.152 206.479 244.152L205.327 243.492L203.978 239.528H203.364C203.042 239.524 202.728 239.623 202.467 239.81C202.205 239.996 202.01 240.261 201.908 240.566L201.332 242.234C200.99 243.221 200.971 244.291 201.279 245.289C201.587 246.287 202.206 247.161 203.045 247.783L205.084 249.299C205.384 249.527 205.64 249.807 205.842 250.125C209.059 255.064 212.699 259.716 216.72 264.026C217.172 264.485 217.77 264.771 218.41 264.836C219.051 264.901 219.694 264.741 220.229 264.383C224.171 261.783 232.198 254.256 236.322 249.011C236.702 248.525 236.975 247.965 237.122 247.366C237.269 246.767 237.288 246.144 237.176 245.538C237.064 244.931 236.825 244.356 236.473 243.849C236.122 243.342 235.667 242.916 235.139 242.598C234.177 242.029 233.033 241.852 231.945 242.105C230.857 242.358 229.907 243.02 229.295 243.955Z" fill="#FFA8A7"/>
<path d="M159.672 131.71C161.886 130.437 163.682 131.46 163.69 133.984L163.826 181.185C163.753 182.57 163.353 183.919 162.659 185.121C161.965 186.322 160.996 187.342 159.832 188.098L103.209 220.79C100.996 222.071 99.1992 221.04 99.1916 218.516L99.0552 171.308C99.1283 169.921 99.5283 168.571 100.223 167.369C100.917 166.166 101.886 165.144 103.05 164.387L159.672 131.71Z" fill="white"/>
<g opacity="0.8">
<path d="M159.672 131.71C161.886 130.437 163.682 131.46 163.69 133.984L163.826 181.185C163.753 182.57 163.353 183.919 162.659 185.121C161.965 186.322 160.996 187.342 159.832 188.098L103.209 220.79C100.996 222.071 99.1992 221.04 99.1916 218.516L99.0552 171.308C99.1283 169.921 99.5283 168.571 100.223 167.369C100.917 166.166 101.886 165.144 103.05 164.387L159.672 131.71Z" fill="white"/>
</g>
<path d="M160.097 134.818C160.143 134.782 160.199 134.763 160.256 134.763C160.314 134.763 160.37 134.782 160.416 134.818C160.552 134.947 160.514 135.257 160.34 135.515L132.112 175.856L160.476 183.55C160.651 183.603 160.688 183.868 160.56 184.148C160.491 184.3 160.381 184.429 160.241 184.52C160.169 184.565 160.083 184.584 159.999 184.573L131.445 176.819L103.02 217.462C102.962 217.557 102.881 217.635 102.785 217.69C102.738 217.725 102.681 217.744 102.622 217.744C102.563 217.744 102.506 217.725 102.459 217.69C102.33 217.561 102.368 217.25 102.542 217L130.763 176.637L102.406 168.958C102.224 168.913 102.194 168.647 102.322 168.359C102.389 168.206 102.5 168.077 102.641 167.988C102.676 167.964 102.716 167.948 102.757 167.941C102.799 167.933 102.842 167.933 102.883 167.942L131.437 175.689L159.862 135.045C159.923 134.953 160.003 134.876 160.097 134.818Z" fill="white"/>
<path d="M160.893 165.585L163.796 171.763L158.634 187.438L147.226 194.844L151.304 204.501L162.962 193.131C164.354 191.769 165.25 189.982 165.509 188.052L167.7 171.573L165.244 162.212L163.804 160.832L163.849 166.737L162.394 164.706C162.264 164.524 162.069 164.401 161.849 164.361C161.63 164.321 161.404 164.369 161.219 164.493C161.039 164.603 160.906 164.775 160.846 164.976C160.785 165.178 160.802 165.395 160.893 165.585Z" fill="#AB6060"/>
<path d="M146.627 193.29L155.943 188.605C161.393 189.985 161.537 195.746 161.537 195.746L151.903 204.501L146.627 193.29Z" fill="#37474F"/>
<path d="M136.789 299.728C136.539 300.317 136.124 300.82 135.594 301.176C135.064 301.533 134.441 301.728 133.802 301.737C132.524 301.744 131.249 301.584 130.012 301.26C127.208 300.752 124.494 301.26 121.674 301.184C120.778 301.203 119.882 301.116 119.006 300.926C118.103 300.716 117.286 300.234 116.664 299.546C116.314 299.128 116.084 298.622 115.997 298.083C115.94 298.488 115.971 298.9 116.086 299.292C116.201 299.684 116.398 300.047 116.664 300.357C117.293 301.026 118.109 301.488 119.006 301.684C119.904 301.885 120.822 301.984 121.743 301.98C124.54 302.04 127.253 301.54 130.081 302.048C131.318 302.371 132.592 302.534 133.871 302.533C134.51 302.522 135.133 302.326 135.663 301.968C136.193 301.61 136.608 301.106 136.857 300.517C136.981 300.099 137.014 299.66 136.956 299.228C136.922 299.401 136.866 299.57 136.789 299.728Z" fill="#263238"/>
<path d="M136.72 297.401C136.546 296.552 136.372 295.703 136.205 294.847C136.139 294.392 135.993 293.953 135.773 293.551C135.658 293.351 135.492 293.186 135.292 293.071C135.092 292.957 134.866 292.897 134.636 292.899C133.12 292.694 130.937 292.141 129.656 293.02C127.643 294.404 125.237 295.103 122.796 295.013C121.538 294.865 120.271 294.815 119.006 294.862C118.369 294.898 117.756 295.112 117.234 295.479C116.713 295.846 116.305 296.352 116.057 296.939C115.954 297.298 115.933 297.677 115.996 298.045C116.083 298.584 116.314 299.09 116.664 299.508C117.28 300.21 118.098 300.705 119.006 300.926C119.903 301.134 120.821 301.234 121.742 301.221C124.539 301.29 127.253 300.789 130.08 301.297C131.317 301.621 132.591 301.782 133.87 301.775C134.509 301.765 135.131 301.571 135.662 301.214C136.192 300.857 136.607 300.354 136.857 299.766C136.908 299.614 136.941 299.456 136.955 299.296C136.98 298.656 136.901 298.016 136.72 297.401Z" fill="#119726"/>
<path d="M129.285 290.314L129.171 293.642C129.158 293.982 129.279 294.314 129.506 294.567C129.734 294.82 130.051 294.975 130.391 294.998C131.506 295.09 132.627 295.09 133.742 294.998C134.194 294.957 134.616 294.754 134.93 294.427C135.245 294.1 135.431 293.67 135.455 293.217L135.591 290.761L129.285 290.314Z" fill="#FFA8A7"/>
<path opacity="0.4" d="M129.285 290.314L129.171 293.642C129.158 293.982 129.279 294.314 129.506 294.567C129.734 294.82 130.051 294.975 130.391 294.998C131.506 295.09 132.627 295.09 133.742 294.998C134.194 294.957 134.616 294.754 134.93 294.427C135.245 294.1 135.431 293.67 135.455 293.217L135.591 290.761L129.285 290.314Z" fill="black"/>
<path d="M150.986 288.578C150.974 289.068 150.821 289.544 150.546 289.95C150.15 290.428 149.591 290.744 148.977 290.837C148.242 290.962 147.487 290.878 146.798 290.594C146.109 290.31 145.514 289.837 145.081 289.23C144.664 288.623 144.422 287.911 144.027 287.297C143.431 286.464 142.692 285.743 141.844 285.167C140.997 284.595 140.253 283.883 139.646 283.06C139.356 282.659 139.166 282.194 139.094 281.705C139.021 281.215 139.068 280.715 139.229 280.248C139.147 280.359 139.076 280.478 139.017 280.604C138.833 281.097 138.773 281.628 138.842 282.15C138.91 282.672 139.106 283.169 139.411 283.598C140.044 284.443 140.813 285.178 141.685 285.773C142.549 286.364 143.301 287.103 143.906 287.956C144.315 288.601 144.558 289.336 144.982 289.958C145.42 290.58 146.026 291.066 146.729 291.359C147.432 291.651 148.204 291.738 148.954 291.61C149.583 291.52 150.155 291.195 150.554 290.7C150.918 290.134 151.084 289.461 151.024 288.79C151.015 288.719 151.002 288.648 150.986 288.578Z" fill="#263238"/>
<path d="M149.978 284.401C148.97 282.635 146.885 281.369 145.278 280.088C144.398 279.326 143.316 278.834 142.163 278.671C141.583 278.607 140.998 278.717 140.481 278.987C139.964 279.257 139.539 279.675 139.26 280.187C139.257 280.217 139.257 280.248 139.26 280.278C139.098 280.746 139.052 281.245 139.124 281.735C139.197 282.224 139.386 282.689 139.677 283.09C140.284 283.913 141.027 284.626 141.875 285.197C142.705 285.763 143.431 286.468 144.02 287.282C144.414 287.896 144.657 288.608 145.074 289.215C145.506 289.822 146.101 290.294 146.791 290.579C147.48 290.863 148.235 290.947 148.97 290.822C149.584 290.728 150.142 290.413 150.539 289.935C150.814 289.529 150.966 289.053 150.979 288.563C150.979 288.404 150.979 288.244 150.979 288.085C150.955 286.793 150.611 285.528 149.978 284.401Z" fill="#119726"/>
<path d="M145.597 282.87V285.902C146.338 286.251 147.153 286.415 147.972 286.379C148.79 286.343 149.588 286.11 150.296 285.698L150.584 282.976L145.597 282.87Z" fill="#FFA8A7"/>
<path opacity="0.4" d="M145.597 282.87V285.902C146.338 286.251 147.153 286.415 147.972 286.379C148.79 286.343 149.588 286.11 150.296 285.698L150.584 282.976L145.597 282.87Z" fill="black"/>
<path d="M151.373 228.052C152.282 230.773 152.002 245.023 151.471 257.409C152.335 263.473 152.313 276.503 151.176 285.94C149.995 286.472 148.719 286.759 147.424 286.785C146.129 286.811 144.842 286.575 143.641 286.092L140.988 257.432L140.366 242.704C140.366 242.704 139.252 255.772 137.964 264.155C138.434 270.31 137.418 282.074 136.508 294.627C136.508 294.627 131.657 297.454 126.844 294.354C125.161 266.611 127.897 238.512 128.458 229.409L151.373 228.052Z" fill="#E4EF5A"/>
<path d="M151.373 228.052C152.282 230.773 152.002 245.023 151.471 257.409C152.335 263.473 152.313 276.503 151.176 285.94C149.995 286.472 148.719 286.759 147.424 286.785C146.129 286.811 144.842 286.575 143.641 286.092L140.988 257.432L140.366 242.704C140.366 242.704 139.252 255.772 137.964 264.155C138.434 270.31 137.418 282.074 136.508 294.627C136.508 294.627 131.657 297.454 126.844 294.354C125.161 266.611 127.897 238.512 128.458 229.409L151.373 228.052Z" fill="black" fill-opacity="0.2"/>
<path d="M151.373 228.052C152.282 230.773 152.002 245.023 151.471 257.409C152.335 263.473 152.313 276.503 151.176 285.94C149.995 286.472 148.719 286.759 147.424 286.785C146.129 286.811 144.842 286.575 143.641 286.092L140.988 257.432L140.366 242.704C140.366 242.704 139.252 255.772 137.964 264.155C138.434 270.31 137.418 282.074 136.508 294.627C136.508 294.627 131.657 297.454 126.844 294.354C125.161 266.611 127.897 238.512 128.458 229.409L151.373 228.052Z" fill="black" fill-opacity="0.2"/>
<path d="M151.373 228.052C152.282 230.773 152.002 245.023 151.471 257.409C152.335 263.473 152.313 276.503 151.176 285.94C149.995 286.472 148.719 286.759 147.424 286.785C146.129 286.811 144.842 286.575 143.641 286.092L140.988 257.432L140.366 242.704C140.366 242.704 139.252 255.772 137.964 264.155C138.434 270.31 137.418 282.074 136.508 294.627C136.508 294.627 131.657 297.454 126.844 294.354C125.161 266.611 127.897 238.512 128.458 229.409L151.373 228.052Z" fill="black" fill-opacity="0.2"/>
<path opacity="0.3" d="M140.73 251.656L140.23 239.664C143.338 239.664 146.218 237.337 148.409 235.116C146.94 237.503 144.784 239.39 142.224 240.528L140.73 251.656Z" fill="black"/>
<path d="M127.965 206.623V230.121C141.822 235.927 150.796 230.682 152.017 227.953C151.372 218.38 153.639 207.176 153.464 202.424C153.29 197.671 152.706 192.297 145.331 193.373L137.478 194.131L133.499 195.102L127.965 206.623Z" fill="#455A64"/>
<path d="M120.613 205.342L117.967 208.094L103.232 202.28C103.229 200.931 103.138 199.584 102.959 198.247C102.868 197.83 102.633 197.489 102.201 197.489C101.913 197.489 101.496 197.959 101.443 198.717C101.443 198.861 101.443 199.702 101.39 199.953C101.381 200.067 101.339 200.176 101.268 200.265C101.197 200.355 101.101 200.422 100.992 200.457C100.883 200.492 100.766 200.494 100.656 200.462C100.546 200.43 100.448 200.366 100.374 200.279C100.069 199.955 99.7997 199.599 99.5708 199.217L99.3359 198.565C99.1837 197.881 99.1075 197.182 99.1085 196.481C98.4739 196.735 97.9239 197.162 97.5216 197.715C97.1194 198.267 96.8812 198.922 96.8345 199.604C96.5998 200.677 96.5588 201.783 96.7132 202.871C97.168 204.387 98.5248 205.084 100.859 205.842C105.514 209.094 112.017 212.892 115.512 214.885C116.248 215.309 117.089 215.518 117.938 215.489C118.788 215.459 119.612 215.193 120.317 214.718L125.911 210.982L120.613 205.342Z" fill="#AB6060"/>
<path d="M116.353 211.482C116.614 210.243 117.168 209.084 117.968 208.101L116.709 207.609C115.876 208.306 115.633 210.178 116.353 211.482Z" fill="#873E3E"/>
<path d="M119.961 205.365L127.405 198.043C129.059 196.413 131.208 195.381 133.514 195.109H133.65C136.796 202.007 132.635 205.38 132.635 205.38L125.722 211.732C123.109 210.358 121.068 208.102 119.961 205.365Z" fill="#37474F"/>
<path d="M144.937 189.091C147.495 186.818 149.154 183.704 149.614 180.313C149.786 179.384 149.68 178.424 149.311 177.554C148.894 176.713 147.795 175.833 146.908 176.038C146.881 175.457 146.726 174.889 146.453 174.375C146.18 173.861 145.797 173.414 145.331 173.067C144.471 172.624 143.508 172.42 142.542 172.475C141.579 172.475 140.624 172.634 139.661 172.634C138.145 172.634 134.696 172.21 133.332 171.535C133.325 172.415 133.59 173.275 134.09 173.999C133.105 173.817 132.225 172.953 131.437 172.324C131.489 173.647 132.055 174.897 133.014 175.811C131.68 175.682 131.429 177.986 133.711 177.986C134.719 187.984 141.632 191.895 144.937 189.091Z" fill="#263238"/>
<path d="M132.817 182.034L131.581 184.194L132.809 184.641C132.766 183.773 132.769 182.902 132.817 182.034Z" fill="#873E3E"/>
<path d="M133.719 178.009C133.263 179.311 132.961 180.661 132.817 182.034C132.771 182.902 132.771 183.772 132.817 184.641C132.867 185.865 133.009 187.084 133.241 188.287C133.32 188.946 133.565 189.575 133.954 190.114C134.472 190.664 135.185 190.99 135.94 191.023C136.689 191.051 137.438 190.98 138.168 190.811V194.343C140.844 194.973 143.065 195.253 145.172 193.639L144.945 189.091C143.651 189.278 142.33 189.072 141.155 188.499C139.305 187.499 138.79 185.899 139.048 185.012C139.213 185.229 139.439 185.392 139.696 185.482C139.953 185.572 140.231 185.585 140.495 185.52C140.75 185.45 140.988 185.329 141.195 185.165C141.402 185.001 141.574 184.797 141.701 184.565C141.946 184.093 142.097 183.579 142.148 183.049C142.279 182.417 142.182 181.76 141.875 181.192C141.637 180.876 141.31 180.638 140.935 180.511C140.561 180.384 140.156 180.373 139.775 180.48C139.398 180.597 139.047 180.788 138.744 181.042C138.441 181.295 138.191 181.607 138.009 181.958C137.887 182.174 137.783 182.399 137.698 182.632C137.668 182.724 137.607 182.801 137.526 182.853C137.444 182.904 137.348 182.926 137.253 182.914C137.157 182.903 137.069 182.859 137.002 182.789C136.936 182.72 136.895 182.63 136.887 182.534C136.787 181.518 136.971 180.495 137.418 179.578C137.107 179.724 136.768 179.802 136.425 179.805C136.245 179.803 136.067 179.763 135.904 179.687C135.741 179.611 135.595 179.501 135.477 179.365C135.365 179.223 135.301 179.049 135.294 178.867C135.287 178.686 135.338 178.508 135.439 178.357C135.144 178.426 134.838 178.43 134.541 178.37C134.244 178.31 133.964 178.186 133.719 178.009Z" fill="#AB6060"/>
<path d="M158.634 187.438C159.259 187.423 159.874 187.601 160.393 187.949C160.913 188.296 161.313 188.795 161.537 189.379C161.416 186.006 159.4 186.551 158.839 186.817L158.634 187.438Z" fill="#873E3E"/>
</svg>
